G04 #@! TF.GenerationSoftware,KiCad,Pcbnew,(5.0.1)-rc2*
G04 #@! TF.CreationDate,2019-04-27T23:34:42+02:00*
G04 #@! TF.ProjectId,Noiseless Switching Supply,4E6F6973656C65737320537769746368,rev?*
G04 #@! TF.SameCoordinates,Original*
G04 #@! TF.FileFunction,Copper,L2,Bot,Signal*
G04 #@! TF.FilePolarity,Positive*
%FSLAX46Y46*%
G04 Gerber Fmt 4.6, Leading zero omitted, Abs format (unit mm)*
G04 Created by KiCad (PCBNEW (5.0.1)-rc2) date 27-04-2019 23:34:42*
%MOMM*%
%LPD*%
G01*
G04 APERTURE LIST*
G04 #@! TA.AperFunction,ComponentPad*
%ADD10C,6.400000*%
G04 #@! TD*
G04 #@! TA.AperFunction,ComponentPad*
%ADD11C,6.440000*%
G04 #@! TD*
G04 #@! TA.AperFunction,ViaPad*
%ADD12C,0.600000*%
G04 #@! TD*
G04 #@! TA.AperFunction,ViaPad*
%ADD13C,0.800000*%
G04 #@! TD*
G04 #@! TA.AperFunction,Conductor*
%ADD14C,0.200000*%
G04 #@! TD*
G04 #@! TA.AperFunction,Conductor*
%ADD15C,0.254000*%
G04 #@! TD*
G04 APERTURE END LIST*
D10*
G04 #@! TO.P,PCB1,1*
G04 #@! TO.N,N/C*
X128000000Y-93500000D03*
G04 #@! TO.P,PCB1,2*
X128000000Y-116500000D03*
D11*
G04 #@! TO.P,PCB1,3*
X170000000Y-116500000D03*
D10*
G04 #@! TO.P,PCB1,4*
X170000000Y-93500000D03*
G04 #@! TD*
D12*
G04 #@! TO.N,GND*
X144500000Y-106500000D03*
X147500000Y-106500000D03*
X146500000Y-106500000D03*
X145500000Y-106500000D03*
X141000000Y-106000000D03*
X141000000Y-105000000D03*
X141000000Y-104000000D03*
X140000000Y-104000000D03*
X140000000Y-105000000D03*
X140000000Y-106000000D03*
X139000000Y-106000000D03*
X139000000Y-105000000D03*
X139000000Y-104000000D03*
X138000000Y-104000000D03*
X138000000Y-105000000D03*
X138000000Y-106000000D03*
X156500000Y-100000000D03*
X157500000Y-100000000D03*
X157500000Y-101000000D03*
X156500000Y-101000000D03*
X156500000Y-102000000D03*
X157500000Y-102000000D03*
D13*
X125250000Y-99000000D03*
X172500000Y-111500000D03*
X172500000Y-98500000D03*
D12*
X153500000Y-114500000D03*
X157000000Y-104000000D03*
X156500000Y-103000000D03*
X157500000Y-103000000D03*
X158000000Y-105000000D03*
X157000000Y-105000000D03*
X156000000Y-105000000D03*
X157000000Y-106000000D03*
X156000000Y-106000000D03*
X155000000Y-105000000D03*
X155000000Y-106000000D03*
X155000000Y-107000000D03*
X156000000Y-107000000D03*
X157000000Y-107000000D03*
X157500000Y-99000000D03*
X156500000Y-99000000D03*
X156500000Y-98000000D03*
X155500000Y-98000000D03*
X156500000Y-97000000D03*
X155500000Y-97000000D03*
X155500000Y-96000000D03*
X156500000Y-96000000D03*
X154500000Y-98000000D03*
X154500000Y-97000000D03*
X154500000Y-96000000D03*
X153500000Y-97000000D03*
X153500000Y-96000000D03*
X154000000Y-105000000D03*
X154000000Y-106000000D03*
X154000000Y-107000000D03*
X136000000Y-104000000D03*
X136000000Y-105000000D03*
X136000000Y-106000000D03*
X135000000Y-106000000D03*
X135000000Y-105000000D03*
X135000000Y-104000000D03*
X135000000Y-107000000D03*
X136000000Y-107000000D03*
X136000000Y-103000000D03*
X135000000Y-103000000D03*
X168000000Y-105000000D03*
X169000000Y-105000000D03*
X162500000Y-105000000D03*
X163500000Y-105000000D03*
X168000000Y-104000000D03*
X168000000Y-106000000D03*
X168000000Y-103000000D03*
X168000000Y-107000000D03*
X161500000Y-105000000D03*
X160500000Y-105000000D03*
X159500000Y-105000000D03*
X139000000Y-110750000D03*
X149500000Y-106500000D03*
G04 #@! TO.N,/VIN*
X133500000Y-103000000D03*
X132500000Y-103000000D03*
X131500000Y-103000000D03*
X131500000Y-102000000D03*
X132500000Y-102000000D03*
X133500000Y-102000000D03*
X134000000Y-110000000D03*
X138500000Y-98750000D03*
X146500000Y-105500000D03*
X147500000Y-105500000D03*
X145500000Y-105500000D03*
X144500000Y-105500000D03*
X141000000Y-100500000D03*
X141000000Y-110750000D03*
X134000000Y-109000000D03*
X134000000Y-111000000D03*
G04 #@! TO.N,+15V*
X165500000Y-102500000D03*
X164500000Y-102500000D03*
X166500000Y-102500000D03*
X159000000Y-98500000D03*
X159000000Y-97750000D03*
X159000000Y-97000000D03*
X159000000Y-96250000D03*
X162000000Y-104000000D03*
G04 #@! TO.N,-15V*
X165500000Y-107500000D03*
X164500000Y-107500000D03*
X166500000Y-107500000D03*
X158500000Y-108000000D03*
X158500000Y-107250000D03*
X158500000Y-106500000D03*
X158500000Y-105750000D03*
X152500000Y-113500000D03*
G04 #@! TO.N,VEE*
X157500000Y-109500000D03*
X156500000Y-110500000D03*
X157500000Y-110500000D03*
X156500000Y-111500000D03*
X157500000Y-111500000D03*
X156500000Y-112500000D03*
X157500000Y-112500000D03*
X156500000Y-113500000D03*
X157500000Y-113500000D03*
X158500000Y-113500000D03*
X159500000Y-113500000D03*
X155500000Y-113500000D03*
X155500000Y-114500000D03*
X156500000Y-114500000D03*
X157500000Y-114500000D03*
X158500000Y-114500000D03*
X159500000Y-114500000D03*
X159500000Y-115500000D03*
X158500000Y-115500000D03*
X157500000Y-115500000D03*
X156500000Y-115500000D03*
X155500000Y-115500000D03*
X154500000Y-114500000D03*
X154500000Y-115500000D03*
X160500000Y-115500000D03*
X160500000Y-114500000D03*
X160500000Y-113500000D03*
X156500000Y-109500000D03*
G04 #@! TO.N,Net-(C2-Pad2)*
X141000000Y-108250000D03*
X138750000Y-108200000D03*
G04 #@! TD*
D14*
G04 #@! TO.N,/VIN*
X134299999Y-110299999D02*
X134000000Y-110000000D01*
X135350001Y-111350001D02*
X134299999Y-110299999D01*
X139975735Y-111350001D02*
X135350001Y-111350001D01*
X140575736Y-110750000D02*
X139975735Y-111350001D01*
X141000000Y-110750000D02*
X140575736Y-110750000D01*
X138500000Y-98750000D02*
X138500000Y-100500000D01*
G04 #@! TO.N,+15V*
X159000000Y-98500000D02*
X159000000Y-101000000D01*
X159000000Y-101000000D02*
X162000000Y-104000000D01*
X162000000Y-104000000D02*
X162000000Y-104000000D01*
G04 #@! TO.N,-15V*
X152500000Y-113500000D02*
X152500000Y-113500000D01*
X152500000Y-112500000D02*
X152500000Y-113500000D01*
X158500000Y-108000000D02*
X157000000Y-108000000D01*
X157000000Y-108000000D02*
X152500000Y-112500000D01*
G04 #@! TO.N,Net-(C2-Pad2)*
X138750000Y-108250000D02*
X141000000Y-108250000D01*
G04 #@! TD*
G04 #@! TO.N,GND*
G36*
X167960764Y-90448068D02*
X166948068Y-91460764D01*
X166400000Y-92783916D01*
X166400000Y-94216084D01*
X166948068Y-95539236D01*
X167960764Y-96551932D01*
X169283916Y-97100000D01*
X170716084Y-97100000D01*
X172039236Y-96551932D01*
X173051932Y-95539236D01*
X173525000Y-94397150D01*
X173525001Y-115550589D01*
X173068888Y-114449435D01*
X172050565Y-113431112D01*
X170720063Y-112880000D01*
X169279937Y-112880000D01*
X167949435Y-113431112D01*
X166931112Y-114449435D01*
X166380000Y-115779937D01*
X166380000Y-117220063D01*
X166931112Y-118550565D01*
X167949435Y-119568888D01*
X169050587Y-120025000D01*
X128897150Y-120025000D01*
X130039236Y-119551932D01*
X131051932Y-118539236D01*
X131600000Y-117216084D01*
X131600000Y-115783916D01*
X131051932Y-114460764D01*
X130039236Y-113448068D01*
X129828459Y-113360761D01*
X151800000Y-113360761D01*
X151800000Y-113639239D01*
X151906568Y-113896518D01*
X152103482Y-114093432D01*
X152360761Y-114200000D01*
X152639239Y-114200000D01*
X152896518Y-114093432D01*
X153093432Y-113896518D01*
X153200000Y-113639239D01*
X153200000Y-113360761D01*
X153093432Y-113103482D01*
X153000000Y-113010050D01*
X153000000Y-112707106D01*
X155878456Y-109828650D01*
X155906568Y-109896518D01*
X156010050Y-110000000D01*
X155906568Y-110103482D01*
X155800000Y-110360761D01*
X155800000Y-110639239D01*
X155906568Y-110896518D01*
X156010050Y-111000000D01*
X155906568Y-111103482D01*
X155800000Y-111360761D01*
X155800000Y-111639239D01*
X155906568Y-111896518D01*
X156010050Y-112000000D01*
X155906568Y-112103482D01*
X155800000Y-112360761D01*
X155800000Y-112639239D01*
X155906568Y-112896518D01*
X156010050Y-113000000D01*
X156000000Y-113010050D01*
X155896518Y-112906568D01*
X155639239Y-112800000D01*
X155360761Y-112800000D01*
X155103482Y-112906568D01*
X154906568Y-113103482D01*
X154800000Y-113360761D01*
X154800000Y-113639239D01*
X154906568Y-113896518D01*
X155010050Y-114000000D01*
X155000000Y-114010050D01*
X154896518Y-113906568D01*
X154639239Y-113800000D01*
X154360761Y-113800000D01*
X154103482Y-113906568D01*
X153906568Y-114103482D01*
X153800000Y-114360761D01*
X153800000Y-114639239D01*
X153906568Y-114896518D01*
X154010050Y-115000000D01*
X153906568Y-115103482D01*
X153800000Y-115360761D01*
X153800000Y-115639239D01*
X153906568Y-115896518D01*
X154103482Y-116093432D01*
X154360761Y-116200000D01*
X154639239Y-116200000D01*
X154896518Y-116093432D01*
X155000000Y-115989950D01*
X155103482Y-116093432D01*
X155360761Y-116200000D01*
X155639239Y-116200000D01*
X155896518Y-116093432D01*
X156000000Y-115989950D01*
X156103482Y-116093432D01*
X156360761Y-116200000D01*
X156639239Y-116200000D01*
X156896518Y-116093432D01*
X157000000Y-115989950D01*
X157103482Y-116093432D01*
X157360761Y-116200000D01*
X157639239Y-116200000D01*
X157896518Y-116093432D01*
X158000000Y-115989950D01*
X158103482Y-116093432D01*
X158360761Y-116200000D01*
X158639239Y-116200000D01*
X158896518Y-116093432D01*
X159000000Y-115989950D01*
X159103482Y-116093432D01*
X159360761Y-116200000D01*
X159639239Y-116200000D01*
X159896518Y-116093432D01*
X160000000Y-115989950D01*
X160103482Y-116093432D01*
X160360761Y-116200000D01*
X160639239Y-116200000D01*
X160896518Y-116093432D01*
X161093432Y-115896518D01*
X161200000Y-115639239D01*
X161200000Y-115360761D01*
X161093432Y-115103482D01*
X160989950Y-115000000D01*
X161093432Y-114896518D01*
X161200000Y-114639239D01*
X161200000Y-114360761D01*
X161093432Y-114103482D01*
X160989950Y-114000000D01*
X161093432Y-113896518D01*
X161200000Y-113639239D01*
X161200000Y-113360761D01*
X161093432Y-113103482D01*
X160896518Y-112906568D01*
X160639239Y-112800000D01*
X160360761Y-112800000D01*
X160103482Y-112906568D01*
X160000000Y-113010050D01*
X159896518Y-112906568D01*
X159639239Y-112800000D01*
X159360761Y-112800000D01*
X159103482Y-112906568D01*
X159000000Y-113010050D01*
X158896518Y-112906568D01*
X158639239Y-112800000D01*
X158360761Y-112800000D01*
X158103482Y-112906568D01*
X158000000Y-113010050D01*
X157989950Y-113000000D01*
X158093432Y-112896518D01*
X158200000Y-112639239D01*
X158200000Y-112360761D01*
X158093432Y-112103482D01*
X157989950Y-112000000D01*
X158093432Y-111896518D01*
X158200000Y-111639239D01*
X158200000Y-111360761D01*
X158093432Y-111103482D01*
X157989950Y-111000000D01*
X158093432Y-110896518D01*
X158200000Y-110639239D01*
X158200000Y-110360761D01*
X158093432Y-110103482D01*
X157989950Y-110000000D01*
X158093432Y-109896518D01*
X158200000Y-109639239D01*
X158200000Y-109360761D01*
X158095303Y-109108000D01*
X167000000Y-109108000D01*
X167232672Y-109061719D01*
X167429921Y-108929921D01*
X167561719Y-108732672D01*
X167608000Y-108500000D01*
X167608000Y-105500000D01*
X167561719Y-105267328D01*
X167429921Y-105070079D01*
X167232672Y-104938281D01*
X167000000Y-104892000D01*
X158000000Y-104892000D01*
X157767328Y-104938281D01*
X157570079Y-105070079D01*
X157438281Y-105267328D01*
X157392000Y-105500000D01*
X157392000Y-107500000D01*
X157049241Y-107500000D01*
X156999999Y-107490205D01*
X156950758Y-107500000D01*
X156950757Y-107500000D01*
X156804910Y-107529011D01*
X156639520Y-107639520D01*
X156611625Y-107681268D01*
X152181271Y-112111623D01*
X152139520Y-112139520D01*
X152029011Y-112304911D01*
X152000000Y-112450757D01*
X151990205Y-112500000D01*
X152000000Y-112549242D01*
X152000001Y-113010049D01*
X151906568Y-113103482D01*
X151800000Y-113360761D01*
X129828459Y-113360761D01*
X128716084Y-112900000D01*
X127283916Y-112900000D01*
X125960764Y-113448068D01*
X124948068Y-114460764D01*
X124475000Y-115602850D01*
X124475000Y-100000000D01*
X130100000Y-100000000D01*
X130100000Y-112000000D01*
X130130448Y-112153073D01*
X130217157Y-112282843D01*
X130346927Y-112369552D01*
X130500000Y-112400000D01*
X135000000Y-112400000D01*
X135153073Y-112369552D01*
X135282843Y-112282843D01*
X135369552Y-112153073D01*
X135400000Y-112000000D01*
X135400000Y-111850001D01*
X139926494Y-111850001D01*
X139975735Y-111859796D01*
X140024976Y-111850001D01*
X140024978Y-111850001D01*
X140170825Y-111820990D01*
X140336215Y-111710481D01*
X140364111Y-111668731D01*
X140664243Y-111368600D01*
X140860761Y-111450000D01*
X141139239Y-111450000D01*
X141396518Y-111343432D01*
X141593432Y-111146518D01*
X141700000Y-110889239D01*
X141700000Y-110610761D01*
X141593432Y-110353482D01*
X141396518Y-110156568D01*
X141139239Y-110050000D01*
X140860761Y-110050000D01*
X140603482Y-110156568D01*
X140505968Y-110254082D01*
X140380646Y-110279011D01*
X140215256Y-110389520D01*
X140187361Y-110431268D01*
X139768629Y-110850001D01*
X135557108Y-110850001D01*
X135400000Y-110692893D01*
X135400000Y-108060761D01*
X138050000Y-108060761D01*
X138050000Y-108339239D01*
X138156568Y-108596518D01*
X138353482Y-108793432D01*
X138610761Y-108900000D01*
X138889239Y-108900000D01*
X139146518Y-108793432D01*
X139189950Y-108750000D01*
X140510050Y-108750000D01*
X140603482Y-108843432D01*
X140860761Y-108950000D01*
X141139239Y-108950000D01*
X141396518Y-108843432D01*
X141593432Y-108646518D01*
X141700000Y-108389239D01*
X141700000Y-108110761D01*
X141593432Y-107853482D01*
X141396518Y-107656568D01*
X141139239Y-107550000D01*
X140860761Y-107550000D01*
X140603482Y-107656568D01*
X140510050Y-107750000D01*
X139289950Y-107750000D01*
X139146518Y-107606568D01*
X138889239Y-107500000D01*
X138610761Y-107500000D01*
X138353482Y-107606568D01*
X138156568Y-107803482D01*
X138050000Y-108060761D01*
X135400000Y-108060761D01*
X135400000Y-108000000D01*
X135369552Y-107846927D01*
X135282843Y-107717157D01*
X135153073Y-107630448D01*
X135000000Y-107600000D01*
X134400000Y-107600000D01*
X134400000Y-102400000D01*
X139834314Y-102400000D01*
X143717157Y-106282843D01*
X143846927Y-106369552D01*
X144000000Y-106400000D01*
X148000000Y-106400000D01*
X148153073Y-106369552D01*
X148282843Y-106282843D01*
X148369552Y-106153073D01*
X148400000Y-106000000D01*
X148400000Y-105000000D01*
X148369552Y-104846927D01*
X148282843Y-104717157D01*
X143282843Y-99717157D01*
X143153073Y-99630448D01*
X143000000Y-99600000D01*
X139000000Y-99600000D01*
X139000000Y-99239950D01*
X139093432Y-99146518D01*
X139200000Y-98889239D01*
X139200000Y-98610761D01*
X139093432Y-98353482D01*
X138896518Y-98156568D01*
X138639239Y-98050000D01*
X138360761Y-98050000D01*
X138103482Y-98156568D01*
X137906568Y-98353482D01*
X137800000Y-98610761D01*
X137800000Y-98889239D01*
X137906568Y-99146518D01*
X138000000Y-99239950D01*
X138000000Y-99600000D01*
X130500000Y-99600000D01*
X130346927Y-99630448D01*
X130217157Y-99717157D01*
X130130448Y-99846927D01*
X130100000Y-100000000D01*
X124475000Y-100000000D01*
X124475000Y-94397150D01*
X124948068Y-95539236D01*
X125960764Y-96551932D01*
X127283916Y-97100000D01*
X128716084Y-97100000D01*
X130039236Y-96551932D01*
X130591168Y-96000000D01*
X157892000Y-96000000D01*
X157892000Y-99000000D01*
X157938281Y-99232672D01*
X158070079Y-99429921D01*
X158267328Y-99561719D01*
X158500000Y-99608000D01*
X158500001Y-100950754D01*
X158490205Y-101000000D01*
X158529012Y-101195090D01*
X158639521Y-101360480D01*
X158681268Y-101388375D01*
X161300000Y-104007107D01*
X161300000Y-104139239D01*
X161406568Y-104396518D01*
X161603482Y-104593432D01*
X161860761Y-104700000D01*
X162139239Y-104700000D01*
X162396518Y-104593432D01*
X162593432Y-104396518D01*
X162700000Y-104139239D01*
X162700000Y-103860761D01*
X162593432Y-103603482D01*
X162396518Y-103406568D01*
X162139239Y-103300000D01*
X162007107Y-103300000D01*
X159500000Y-100792894D01*
X159500000Y-99608000D01*
X161748158Y-99608000D01*
X163392000Y-101251842D01*
X163392000Y-104000000D01*
X163438281Y-104232672D01*
X163570079Y-104429921D01*
X163767328Y-104561719D01*
X164000000Y-104608000D01*
X167000000Y-104608000D01*
X167232672Y-104561719D01*
X167429921Y-104429921D01*
X167561719Y-104232672D01*
X167608000Y-104000000D01*
X167608000Y-101000000D01*
X167561719Y-100767328D01*
X167429921Y-100570079D01*
X162429921Y-95570079D01*
X162232672Y-95438281D01*
X162000000Y-95392000D01*
X158500000Y-95392000D01*
X158267328Y-95438281D01*
X158070079Y-95570079D01*
X157938281Y-95767328D01*
X157892000Y-96000000D01*
X130591168Y-96000000D01*
X131051932Y-95539236D01*
X131600000Y-94216084D01*
X131600000Y-92783916D01*
X131051932Y-91460764D01*
X130039236Y-90448068D01*
X128897150Y-89975000D01*
X169102850Y-89975000D01*
X167960764Y-90448068D01*
X167960764Y-90448068D01*
G37*
X167960764Y-90448068D02*
X166948068Y-91460764D01*
X166400000Y-92783916D01*
X166400000Y-94216084D01*
X166948068Y-95539236D01*
X167960764Y-96551932D01*
X169283916Y-97100000D01*
X170716084Y-97100000D01*
X172039236Y-96551932D01*
X173051932Y-95539236D01*
X173525000Y-94397150D01*
X173525001Y-115550589D01*
X173068888Y-114449435D01*
X172050565Y-113431112D01*
X170720063Y-112880000D01*
X169279937Y-112880000D01*
X167949435Y-113431112D01*
X166931112Y-114449435D01*
X166380000Y-115779937D01*
X166380000Y-117220063D01*
X166931112Y-118550565D01*
X167949435Y-119568888D01*
X169050587Y-120025000D01*
X128897150Y-120025000D01*
X130039236Y-119551932D01*
X131051932Y-118539236D01*
X131600000Y-117216084D01*
X131600000Y-115783916D01*
X131051932Y-114460764D01*
X130039236Y-113448068D01*
X129828459Y-113360761D01*
X151800000Y-113360761D01*
X151800000Y-113639239D01*
X151906568Y-113896518D01*
X152103482Y-114093432D01*
X152360761Y-114200000D01*
X152639239Y-114200000D01*
X152896518Y-114093432D01*
X153093432Y-113896518D01*
X153200000Y-113639239D01*
X153200000Y-113360761D01*
X153093432Y-113103482D01*
X153000000Y-113010050D01*
X153000000Y-112707106D01*
X155878456Y-109828650D01*
X155906568Y-109896518D01*
X156010050Y-110000000D01*
X155906568Y-110103482D01*
X155800000Y-110360761D01*
X155800000Y-110639239D01*
X155906568Y-110896518D01*
X156010050Y-111000000D01*
X155906568Y-111103482D01*
X155800000Y-111360761D01*
X155800000Y-111639239D01*
X155906568Y-111896518D01*
X156010050Y-112000000D01*
X155906568Y-112103482D01*
X155800000Y-112360761D01*
X155800000Y-112639239D01*
X155906568Y-112896518D01*
X156010050Y-113000000D01*
X156000000Y-113010050D01*
X155896518Y-112906568D01*
X155639239Y-112800000D01*
X155360761Y-112800000D01*
X155103482Y-112906568D01*
X154906568Y-113103482D01*
X154800000Y-113360761D01*
X154800000Y-113639239D01*
X154906568Y-113896518D01*
X155010050Y-114000000D01*
X155000000Y-114010050D01*
X154896518Y-113906568D01*
X154639239Y-113800000D01*
X154360761Y-113800000D01*
X154103482Y-113906568D01*
X153906568Y-114103482D01*
X153800000Y-114360761D01*
X153800000Y-114639239D01*
X153906568Y-114896518D01*
X154010050Y-115000000D01*
X153906568Y-115103482D01*
X153800000Y-115360761D01*
X153800000Y-115639239D01*
X153906568Y-115896518D01*
X154103482Y-116093432D01*
X154360761Y-116200000D01*
X154639239Y-116200000D01*
X154896518Y-116093432D01*
X155000000Y-115989950D01*
X155103482Y-116093432D01*
X155360761Y-116200000D01*
X155639239Y-116200000D01*
X155896518Y-116093432D01*
X156000000Y-115989950D01*
X156103482Y-116093432D01*
X156360761Y-116200000D01*
X156639239Y-116200000D01*
X156896518Y-116093432D01*
X157000000Y-115989950D01*
X157103482Y-116093432D01*
X157360761Y-116200000D01*
X157639239Y-116200000D01*
X157896518Y-116093432D01*
X158000000Y-115989950D01*
X158103482Y-116093432D01*
X158360761Y-116200000D01*
X158639239Y-116200000D01*
X158896518Y-116093432D01*
X159000000Y-115989950D01*
X159103482Y-116093432D01*
X159360761Y-116200000D01*
X159639239Y-116200000D01*
X159896518Y-116093432D01*
X160000000Y-115989950D01*
X160103482Y-116093432D01*
X160360761Y-116200000D01*
X160639239Y-116200000D01*
X160896518Y-116093432D01*
X161093432Y-115896518D01*
X161200000Y-115639239D01*
X161200000Y-115360761D01*
X161093432Y-115103482D01*
X160989950Y-115000000D01*
X161093432Y-114896518D01*
X161200000Y-114639239D01*
X161200000Y-114360761D01*
X161093432Y-114103482D01*
X160989950Y-114000000D01*
X161093432Y-113896518D01*
X161200000Y-113639239D01*
X161200000Y-113360761D01*
X161093432Y-113103482D01*
X160896518Y-112906568D01*
X160639239Y-112800000D01*
X160360761Y-112800000D01*
X160103482Y-112906568D01*
X160000000Y-113010050D01*
X159896518Y-112906568D01*
X159639239Y-112800000D01*
X159360761Y-112800000D01*
X159103482Y-112906568D01*
X159000000Y-113010050D01*
X158896518Y-112906568D01*
X158639239Y-112800000D01*
X158360761Y-112800000D01*
X158103482Y-112906568D01*
X158000000Y-113010050D01*
X157989950Y-113000000D01*
X158093432Y-112896518D01*
X158200000Y-112639239D01*
X158200000Y-112360761D01*
X158093432Y-112103482D01*
X157989950Y-112000000D01*
X158093432Y-111896518D01*
X158200000Y-111639239D01*
X158200000Y-111360761D01*
X158093432Y-111103482D01*
X157989950Y-111000000D01*
X158093432Y-110896518D01*
X158200000Y-110639239D01*
X158200000Y-110360761D01*
X158093432Y-110103482D01*
X157989950Y-110000000D01*
X158093432Y-109896518D01*
X158200000Y-109639239D01*
X158200000Y-109360761D01*
X158095303Y-109108000D01*
X167000000Y-109108000D01*
X167232672Y-109061719D01*
X167429921Y-108929921D01*
X167561719Y-108732672D01*
X167608000Y-108500000D01*
X167608000Y-105500000D01*
X167561719Y-105267328D01*
X167429921Y-105070079D01*
X167232672Y-104938281D01*
X167000000Y-104892000D01*
X158000000Y-104892000D01*
X157767328Y-104938281D01*
X157570079Y-105070079D01*
X157438281Y-105267328D01*
X157392000Y-105500000D01*
X157392000Y-107500000D01*
X157049241Y-107500000D01*
X156999999Y-107490205D01*
X156950758Y-107500000D01*
X156950757Y-107500000D01*
X156804910Y-107529011D01*
X156639520Y-107639520D01*
X156611625Y-107681268D01*
X152181271Y-112111623D01*
X152139520Y-112139520D01*
X152029011Y-112304911D01*
X152000000Y-112450757D01*
X151990205Y-112500000D01*
X152000000Y-112549242D01*
X152000001Y-113010049D01*
X151906568Y-113103482D01*
X151800000Y-113360761D01*
X129828459Y-113360761D01*
X128716084Y-112900000D01*
X127283916Y-112900000D01*
X125960764Y-113448068D01*
X124948068Y-114460764D01*
X124475000Y-115602850D01*
X124475000Y-100000000D01*
X130100000Y-100000000D01*
X130100000Y-112000000D01*
X130130448Y-112153073D01*
X130217157Y-112282843D01*
X130346927Y-112369552D01*
X130500000Y-112400000D01*
X135000000Y-112400000D01*
X135153073Y-112369552D01*
X135282843Y-112282843D01*
X135369552Y-112153073D01*
X135400000Y-112000000D01*
X135400000Y-111850001D01*
X139926494Y-111850001D01*
X139975735Y-111859796D01*
X140024976Y-111850001D01*
X140024978Y-111850001D01*
X140170825Y-111820990D01*
X140336215Y-111710481D01*
X140364111Y-111668731D01*
X140664243Y-111368600D01*
X140860761Y-111450000D01*
X141139239Y-111450000D01*
X141396518Y-111343432D01*
X141593432Y-111146518D01*
X141700000Y-110889239D01*
X141700000Y-110610761D01*
X141593432Y-110353482D01*
X141396518Y-110156568D01*
X141139239Y-110050000D01*
X140860761Y-110050000D01*
X140603482Y-110156568D01*
X140505968Y-110254082D01*
X140380646Y-110279011D01*
X140215256Y-110389520D01*
X140187361Y-110431268D01*
X139768629Y-110850001D01*
X135557108Y-110850001D01*
X135400000Y-110692893D01*
X135400000Y-108060761D01*
X138050000Y-108060761D01*
X138050000Y-108339239D01*
X138156568Y-108596518D01*
X138353482Y-108793432D01*
X138610761Y-108900000D01*
X138889239Y-108900000D01*
X139146518Y-108793432D01*
X139189950Y-108750000D01*
X140510050Y-108750000D01*
X140603482Y-108843432D01*
X140860761Y-108950000D01*
X141139239Y-108950000D01*
X141396518Y-108843432D01*
X141593432Y-108646518D01*
X141700000Y-108389239D01*
X141700000Y-108110761D01*
X141593432Y-107853482D01*
X141396518Y-107656568D01*
X141139239Y-107550000D01*
X140860761Y-107550000D01*
X140603482Y-107656568D01*
X140510050Y-107750000D01*
X139289950Y-107750000D01*
X139146518Y-107606568D01*
X138889239Y-107500000D01*
X138610761Y-107500000D01*
X138353482Y-107606568D01*
X138156568Y-107803482D01*
X138050000Y-108060761D01*
X135400000Y-108060761D01*
X135400000Y-108000000D01*
X135369552Y-107846927D01*
X135282843Y-107717157D01*
X135153073Y-107630448D01*
X135000000Y-107600000D01*
X134400000Y-107600000D01*
X134400000Y-102400000D01*
X139834314Y-102400000D01*
X143717157Y-106282843D01*
X143846927Y-106369552D01*
X144000000Y-106400000D01*
X148000000Y-106400000D01*
X148153073Y-106369552D01*
X148282843Y-106282843D01*
X148369552Y-106153073D01*
X148400000Y-106000000D01*
X148400000Y-105000000D01*
X148369552Y-104846927D01*
X148282843Y-104717157D01*
X143282843Y-99717157D01*
X143153073Y-99630448D01*
X143000000Y-99600000D01*
X139000000Y-99600000D01*
X139000000Y-99239950D01*
X139093432Y-99146518D01*
X139200000Y-98889239D01*
X139200000Y-98610761D01*
X139093432Y-98353482D01*
X138896518Y-98156568D01*
X138639239Y-98050000D01*
X138360761Y-98050000D01*
X138103482Y-98156568D01*
X137906568Y-98353482D01*
X137800000Y-98610761D01*
X137800000Y-98889239D01*
X137906568Y-99146518D01*
X138000000Y-99239950D01*
X138000000Y-99600000D01*
X130500000Y-99600000D01*
X130346927Y-99630448D01*
X130217157Y-99717157D01*
X130130448Y-99846927D01*
X130100000Y-100000000D01*
X124475000Y-100000000D01*
X124475000Y-94397150D01*
X124948068Y-95539236D01*
X125960764Y-96551932D01*
X127283916Y-97100000D01*
X128716084Y-97100000D01*
X130039236Y-96551932D01*
X130591168Y-96000000D01*
X157892000Y-96000000D01*
X157892000Y-99000000D01*
X157938281Y-99232672D01*
X158070079Y-99429921D01*
X158267328Y-99561719D01*
X158500000Y-99608000D01*
X158500001Y-100950754D01*
X158490205Y-101000000D01*
X158529012Y-101195090D01*
X158639521Y-101360480D01*
X158681268Y-101388375D01*
X161300000Y-104007107D01*
X161300000Y-104139239D01*
X161406568Y-104396518D01*
X161603482Y-104593432D01*
X161860761Y-104700000D01*
X162139239Y-104700000D01*
X162396518Y-104593432D01*
X162593432Y-104396518D01*
X162700000Y-104139239D01*
X162700000Y-103860761D01*
X162593432Y-103603482D01*
X162396518Y-103406568D01*
X162139239Y-103300000D01*
X162007107Y-103300000D01*
X159500000Y-100792894D01*
X159500000Y-99608000D01*
X161748158Y-99608000D01*
X163392000Y-101251842D01*
X163392000Y-104000000D01*
X163438281Y-104232672D01*
X163570079Y-104429921D01*
X163767328Y-104561719D01*
X164000000Y-104608000D01*
X167000000Y-104608000D01*
X167232672Y-104561719D01*
X167429921Y-104429921D01*
X167561719Y-104232672D01*
X167608000Y-104000000D01*
X167608000Y-101000000D01*
X167561719Y-100767328D01*
X167429921Y-100570079D01*
X162429921Y-95570079D01*
X162232672Y-95438281D01*
X162000000Y-95392000D01*
X158500000Y-95392000D01*
X158267328Y-95438281D01*
X158070079Y-95570079D01*
X157938281Y-95767328D01*
X157892000Y-96000000D01*
X130591168Y-96000000D01*
X131051932Y-95539236D01*
X131600000Y-94216084D01*
X131600000Y-92783916D01*
X131051932Y-91460764D01*
X130039236Y-90448068D01*
X128897150Y-89975000D01*
X169102850Y-89975000D01*
X167960764Y-90448068D01*
G04 #@! TO.N,/VIN*
G36*
X147900000Y-105041422D02*
X147900000Y-105900000D01*
X147880661Y-105900000D01*
X147639239Y-105800000D01*
X147360761Y-105800000D01*
X147119339Y-105900000D01*
X146880661Y-105900000D01*
X146639239Y-105800000D01*
X146360761Y-105800000D01*
X146119339Y-105900000D01*
X145880661Y-105900000D01*
X145639239Y-105800000D01*
X145360761Y-105800000D01*
X145119339Y-105900000D01*
X144880661Y-105900000D01*
X144639239Y-105800000D01*
X144360761Y-105800000D01*
X144119339Y-105900000D01*
X144041422Y-105900000D01*
X140070711Y-101929289D01*
X140038268Y-101907612D01*
X140000000Y-101900000D01*
X134000000Y-101900000D01*
X133961732Y-101907612D01*
X133929289Y-101929289D01*
X133907612Y-101961732D01*
X133900000Y-102000000D01*
X133900000Y-108000000D01*
X133907612Y-108038268D01*
X133929289Y-108070711D01*
X133961732Y-108092388D01*
X134000000Y-108100000D01*
X134900000Y-108100000D01*
X134900000Y-111900000D01*
X130600000Y-111900000D01*
X130600000Y-100100000D01*
X142958578Y-100100000D01*
X147900000Y-105041422D01*
X147900000Y-105041422D01*
G37*
X147900000Y-105041422D02*
X147900000Y-105900000D01*
X147880661Y-105900000D01*
X147639239Y-105800000D01*
X147360761Y-105800000D01*
X147119339Y-105900000D01*
X146880661Y-105900000D01*
X146639239Y-105800000D01*
X146360761Y-105800000D01*
X146119339Y-105900000D01*
X145880661Y-105900000D01*
X145639239Y-105800000D01*
X145360761Y-105800000D01*
X145119339Y-105900000D01*
X144880661Y-105900000D01*
X144639239Y-105800000D01*
X144360761Y-105800000D01*
X144119339Y-105900000D01*
X144041422Y-105900000D01*
X140070711Y-101929289D01*
X140038268Y-101907612D01*
X140000000Y-101900000D01*
X134000000Y-101900000D01*
X133961732Y-101907612D01*
X133929289Y-101929289D01*
X133907612Y-101961732D01*
X133900000Y-102000000D01*
X133900000Y-108000000D01*
X133907612Y-108038268D01*
X133929289Y-108070711D01*
X133961732Y-108092388D01*
X134000000Y-108100000D01*
X134900000Y-108100000D01*
X134900000Y-111900000D01*
X130600000Y-111900000D01*
X130600000Y-100100000D01*
X142958578Y-100100000D01*
X147900000Y-105041422D01*
D15*
G04 #@! TO.N,-15V*
G36*
X158970365Y-105792655D02*
X159314017Y-105935000D01*
X159685983Y-105935000D01*
X160000000Y-105804930D01*
X160314017Y-105935000D01*
X160685983Y-105935000D01*
X161000000Y-105804930D01*
X161314017Y-105935000D01*
X161685983Y-105935000D01*
X162000000Y-105804930D01*
X162314017Y-105935000D01*
X162685983Y-105935000D01*
X163000000Y-105804930D01*
X163314017Y-105935000D01*
X163685983Y-105935000D01*
X164029635Y-105792655D01*
X164195290Y-105627000D01*
X166873000Y-105627000D01*
X166873000Y-108373000D01*
X158127000Y-108373000D01*
X158127000Y-105935000D01*
X158185983Y-105935000D01*
X158529635Y-105792655D01*
X158695290Y-105627000D01*
X158804710Y-105627000D01*
X158970365Y-105792655D01*
X158970365Y-105792655D01*
G37*
X158970365Y-105792655D02*
X159314017Y-105935000D01*
X159685983Y-105935000D01*
X160000000Y-105804930D01*
X160314017Y-105935000D01*
X160685983Y-105935000D01*
X161000000Y-105804930D01*
X161314017Y-105935000D01*
X161685983Y-105935000D01*
X162000000Y-105804930D01*
X162314017Y-105935000D01*
X162685983Y-105935000D01*
X163000000Y-105804930D01*
X163314017Y-105935000D01*
X163685983Y-105935000D01*
X164029635Y-105792655D01*
X164195290Y-105627000D01*
X166873000Y-105627000D01*
X166873000Y-108373000D01*
X158127000Y-108373000D01*
X158127000Y-105935000D01*
X158185983Y-105935000D01*
X158529635Y-105792655D01*
X158695290Y-105627000D01*
X158804710Y-105627000D01*
X158970365Y-105792655D01*
G04 #@! TO.N,+15V*
G36*
X166873000Y-101052606D02*
X166873000Y-103873000D01*
X164127000Y-103873000D01*
X164127000Y-101000000D01*
X164117333Y-100951399D01*
X164089803Y-100910197D01*
X162089803Y-98910197D01*
X162048601Y-98882667D01*
X162000000Y-98873000D01*
X158627000Y-98873000D01*
X158627000Y-96127000D01*
X161947394Y-96127000D01*
X166873000Y-101052606D01*
X166873000Y-101052606D01*
G37*
X166873000Y-101052606D02*
X166873000Y-103873000D01*
X164127000Y-103873000D01*
X164127000Y-101000000D01*
X164117333Y-100951399D01*
X164089803Y-100910197D01*
X162089803Y-98910197D01*
X162048601Y-98882667D01*
X162000000Y-98873000D01*
X158627000Y-98873000D01*
X158627000Y-96127000D01*
X161947394Y-96127000D01*
X166873000Y-101052606D01*
G04 #@! TD*
M02*
