M48
METRIC,TZ
T1C0.300
T2C0.400
T3C3.200
%
G90
G05
T1
X131500Y-102000
X131500Y-103000
X132500Y-102000
X132500Y-103000
X133500Y-102000
X133500Y-103000
X134000Y-109000
X134000Y-110000
X134000Y-111000
X135000Y-103000
X135000Y-104000
X135000Y-105000
X135000Y-106000
X135000Y-107000
X136000Y-103000
X136000Y-104000
X136000Y-105000
X136000Y-106000
X136000Y-107000
X138000Y-104000
X138000Y-105000
X138000Y-106000
X138500Y-98750
X138750Y-108200
X139000Y-104000
X139000Y-105000
X139000Y-106000
X139000Y-110750
X140000Y-104000
X140000Y-105000
X140000Y-106000
X141000Y-100500
X141000Y-104000
X141000Y-105000
X141000Y-106000
X141000Y-108250
X141000Y-110750
X144500Y-105500
X144500Y-106500
X145500Y-105500
X145500Y-106500
X146500Y-105500
X146500Y-106500
X147500Y-105500
X147500Y-106500
X149500Y-106500
X152500Y-113500
X153500Y-96000
X153500Y-97000
X153500Y-114500
X154000Y-105000
X154000Y-106000
X154000Y-107000
X154500Y-96000
X154500Y-97000
X154500Y-98000
X154500Y-114500
X154500Y-115500
X155000Y-105000
X155000Y-106000
X155000Y-107000
X155500Y-96000
X155500Y-97000
X155500Y-98000
X155500Y-113500
X155500Y-114500
X155500Y-115500
X156000Y-105000
X156000Y-106000
X156000Y-107000
X156500Y-96000
X156500Y-97000
X156500Y-98000
X156500Y-99000
X156500Y-100000
X156500Y-101000
X156500Y-102000
X156500Y-103000
X156500Y-109500
X156500Y-110500
X156500Y-111500
X156500Y-112500
X156500Y-113500
X156500Y-114500
X156500Y-115500
X157000Y-104000
X157000Y-105000
X157000Y-106000
X157000Y-107000
X157500Y-99000
X157500Y-100000
X157500Y-101000
X157500Y-102000
X157500Y-103000
X157500Y-109500
X157500Y-110500
X157500Y-111500
X157500Y-112500
X157500Y-113500
X157500Y-114500
X157500Y-115500
X158000Y-105000
X158500Y-105750
X158500Y-106500
X158500Y-107250
X158500Y-108000
X158500Y-113500
X158500Y-114500
X158500Y-115500
X159000Y-96250
X159000Y-97000
X159000Y-97750
X159000Y-98500
X159500Y-105000
X159500Y-113500
X159500Y-114500
X159500Y-115500
X160500Y-105000
X160500Y-113500
X160500Y-114500
X160500Y-115500
X161500Y-105000
X162000Y-104000
X162500Y-105000
X163500Y-105000
X164500Y-102500
X164500Y-107500
X165500Y-102500
X165500Y-107500
X166500Y-102500
X166500Y-107500
X168000Y-103000
X168000Y-104000
X168000Y-105000
X168000Y-106000
X168000Y-107000
X169000Y-105000
T2
X125250Y-99000
X172500Y-98500
X172500Y-111500
T3
X128000Y-93500
X128000Y-116500
X170000Y-93500
X170000Y-116500
T0
M30
