G04 #@! TF.GenerationSoftware,KiCad,Pcbnew,(5.0.1)-rc2*
G04 #@! TF.CreationDate,2019-04-27T23:34:42+02:00*
G04 #@! TF.ProjectId,Noiseless Switching Supply,4E6F6973656C65737320537769746368,rev?*
G04 #@! TF.SameCoordinates,Original*
G04 #@! TF.FileFunction,Soldermask,Top*
G04 #@! TF.FilePolarity,Negative*
%FSLAX46Y46*%
G04 Gerber Fmt 4.6, Leading zero omitted, Abs format (unit mm)*
G04 Created by KiCad (PCBNEW (5.0.1)-rc2) date 27-04-2019 23:34:42*
%MOMM*%
%LPD*%
G01*
G04 APERTURE LIST*
%ADD10C,0.100000*%
G04 APERTURE END LIST*
D10*
G36*
X170954113Y-113354702D02*
X170954115Y-113354703D01*
X170954116Y-113354703D01*
X171549400Y-113601277D01*
X172082724Y-113957633D01*
X172085144Y-113959250D01*
X172540750Y-114414856D01*
X172540752Y-114414859D01*
X172898723Y-114950600D01*
X173145297Y-115545884D01*
X173145298Y-115545887D01*
X173271000Y-116177833D01*
X173271000Y-116822167D01*
X173146458Y-117448282D01*
X173145297Y-117454116D01*
X172898723Y-118049400D01*
X172549271Y-118572392D01*
X172540750Y-118585144D01*
X172085144Y-119040750D01*
X172085141Y-119040752D01*
X171549400Y-119398723D01*
X170954116Y-119645297D01*
X170954115Y-119645297D01*
X170954113Y-119645298D01*
X170322167Y-119771000D01*
X169677833Y-119771000D01*
X169045887Y-119645298D01*
X169045885Y-119645297D01*
X169045884Y-119645297D01*
X168450600Y-119398723D01*
X167914859Y-119040752D01*
X167914856Y-119040750D01*
X167459250Y-118585144D01*
X167450729Y-118572392D01*
X167101277Y-118049400D01*
X166854703Y-117454116D01*
X166853543Y-117448282D01*
X166729000Y-116822167D01*
X166729000Y-116177833D01*
X166854702Y-115545887D01*
X166854703Y-115545884D01*
X167101277Y-114950600D01*
X167459248Y-114414859D01*
X167459250Y-114414856D01*
X167914856Y-113959250D01*
X167917276Y-113957633D01*
X168450600Y-113601277D01*
X169045884Y-113354703D01*
X169045885Y-113354703D01*
X169045887Y-113354702D01*
X169677833Y-113229000D01*
X170322167Y-113229000D01*
X170954113Y-113354702D01*
X170954113Y-113354702D01*
G37*
G36*
X128454909Y-113275796D02*
X128948282Y-113373934D01*
X129539926Y-113619001D01*
X130049141Y-113959248D01*
X130072395Y-113974786D01*
X130525214Y-114427605D01*
X130525216Y-114427608D01*
X130880999Y-114960074D01*
X131126066Y-115551718D01*
X131163405Y-115739432D01*
X131251000Y-116179803D01*
X131251000Y-116820197D01*
X131224157Y-116955145D01*
X131126066Y-117448282D01*
X130880999Y-118039926D01*
X130527615Y-118568802D01*
X130525214Y-118572395D01*
X130072395Y-119025214D01*
X130072392Y-119025216D01*
X129539926Y-119380999D01*
X128948282Y-119626066D01*
X128634239Y-119688533D01*
X128320197Y-119751000D01*
X127679803Y-119751000D01*
X127365761Y-119688533D01*
X127051718Y-119626066D01*
X126460074Y-119380999D01*
X125927608Y-119025216D01*
X125927605Y-119025214D01*
X125474786Y-118572395D01*
X125472385Y-118568802D01*
X125119001Y-118039926D01*
X124873934Y-117448282D01*
X124775843Y-116955145D01*
X124749000Y-116820197D01*
X124749000Y-116179803D01*
X124836595Y-115739432D01*
X124873934Y-115551718D01*
X125119001Y-114960074D01*
X125474784Y-114427608D01*
X125474786Y-114427605D01*
X125927605Y-113974786D01*
X125950859Y-113959248D01*
X126460074Y-113619001D01*
X127051718Y-113373934D01*
X127545091Y-113275796D01*
X127679803Y-113249000D01*
X128320197Y-113249000D01*
X128454909Y-113275796D01*
X128454909Y-113275796D01*
G37*
G36*
X143651000Y-117151000D02*
X142349000Y-117151000D01*
X142349000Y-116149000D01*
X143651000Y-116149000D01*
X143651000Y-117151000D01*
X143651000Y-117151000D01*
G37*
G36*
X146268604Y-115728347D02*
X146305145Y-115739432D01*
X146338820Y-115757431D01*
X146368341Y-115781659D01*
X146392569Y-115811180D01*
X146410568Y-115844855D01*
X146421653Y-115881396D01*
X146426000Y-115925538D01*
X146426000Y-116874462D01*
X146421653Y-116918604D01*
X146410568Y-116955145D01*
X146392569Y-116988820D01*
X146368341Y-117018341D01*
X146338820Y-117042569D01*
X146305145Y-117060568D01*
X146268604Y-117071653D01*
X146224462Y-117076000D01*
X144775538Y-117076000D01*
X144731396Y-117071653D01*
X144694855Y-117060568D01*
X144661180Y-117042569D01*
X144631659Y-117018341D01*
X144607431Y-116988820D01*
X144589432Y-116955145D01*
X144578347Y-116918604D01*
X144574000Y-116874462D01*
X144574000Y-115925538D01*
X144578347Y-115881396D01*
X144589432Y-115844855D01*
X144607431Y-115811180D01*
X144631659Y-115781659D01*
X144661180Y-115757431D01*
X144694855Y-115739432D01*
X144731396Y-115728347D01*
X144775538Y-115724000D01*
X146224462Y-115724000D01*
X146268604Y-115728347D01*
X146268604Y-115728347D01*
G37*
G36*
X148768604Y-115728347D02*
X148805145Y-115739432D01*
X148838820Y-115757431D01*
X148868341Y-115781659D01*
X148892569Y-115811180D01*
X148910568Y-115844855D01*
X148921653Y-115881396D01*
X148926000Y-115925538D01*
X148926000Y-116874462D01*
X148921653Y-116918604D01*
X148910568Y-116955145D01*
X148892569Y-116988820D01*
X148868341Y-117018341D01*
X148838820Y-117042569D01*
X148805145Y-117060568D01*
X148768604Y-117071653D01*
X148724462Y-117076000D01*
X147275538Y-117076000D01*
X147231396Y-117071653D01*
X147194855Y-117060568D01*
X147161180Y-117042569D01*
X147131659Y-117018341D01*
X147107431Y-116988820D01*
X147089432Y-116955145D01*
X147078347Y-116918604D01*
X147074000Y-116874462D01*
X147074000Y-115925538D01*
X147078347Y-115881396D01*
X147089432Y-115844855D01*
X147107431Y-115811180D01*
X147131659Y-115781659D01*
X147161180Y-115757431D01*
X147194855Y-115739432D01*
X147231396Y-115728347D01*
X147275538Y-115724000D01*
X148724462Y-115724000D01*
X148768604Y-115728347D01*
X148768604Y-115728347D01*
G37*
G36*
X140281938Y-114141716D02*
X140302556Y-114147970D01*
X140321556Y-114158126D01*
X140338208Y-114171792D01*
X140351874Y-114188444D01*
X140362030Y-114207444D01*
X140368284Y-114228062D01*
X140371000Y-114255640D01*
X140371000Y-114714360D01*
X140368284Y-114741938D01*
X140362030Y-114762556D01*
X140351874Y-114781556D01*
X140338208Y-114798208D01*
X140321556Y-114811874D01*
X140302556Y-114822030D01*
X140281938Y-114828284D01*
X140254360Y-114831000D01*
X139745640Y-114831000D01*
X139718062Y-114828284D01*
X139697444Y-114822030D01*
X139678444Y-114811874D01*
X139661792Y-114798208D01*
X139648126Y-114781556D01*
X139637970Y-114762556D01*
X139631716Y-114741938D01*
X139629000Y-114714360D01*
X139629000Y-114255640D01*
X139631716Y-114228062D01*
X139637970Y-114207444D01*
X139648126Y-114188444D01*
X139661792Y-114171792D01*
X139678444Y-114158126D01*
X139697444Y-114147970D01*
X139718062Y-114141716D01*
X139745640Y-114139000D01*
X140254360Y-114139000D01*
X140281938Y-114141716D01*
X140281938Y-114141716D01*
G37*
G36*
X139281938Y-114141716D02*
X139302556Y-114147970D01*
X139321556Y-114158126D01*
X139338208Y-114171792D01*
X139351874Y-114188444D01*
X139362030Y-114207444D01*
X139368284Y-114228062D01*
X139371000Y-114255640D01*
X139371000Y-114714360D01*
X139368284Y-114741938D01*
X139362030Y-114762556D01*
X139351874Y-114781556D01*
X139338208Y-114798208D01*
X139321556Y-114811874D01*
X139302556Y-114822030D01*
X139281938Y-114828284D01*
X139254360Y-114831000D01*
X138745640Y-114831000D01*
X138718062Y-114828284D01*
X138697444Y-114822030D01*
X138678444Y-114811874D01*
X138661792Y-114798208D01*
X138648126Y-114781556D01*
X138637970Y-114762556D01*
X138631716Y-114741938D01*
X138629000Y-114714360D01*
X138629000Y-114255640D01*
X138631716Y-114228062D01*
X138637970Y-114207444D01*
X138648126Y-114188444D01*
X138661792Y-114171792D01*
X138678444Y-114158126D01*
X138697444Y-114147970D01*
X138718062Y-114141716D01*
X138745640Y-114139000D01*
X139254360Y-114139000D01*
X139281938Y-114141716D01*
X139281938Y-114141716D01*
G37*
G36*
X146268604Y-112928347D02*
X146305145Y-112939432D01*
X146338820Y-112957431D01*
X146368341Y-112981659D01*
X146392569Y-113011180D01*
X146410568Y-113044855D01*
X146421653Y-113081396D01*
X146426000Y-113125538D01*
X146426000Y-114074462D01*
X146421653Y-114118604D01*
X146410568Y-114155145D01*
X146392569Y-114188820D01*
X146368341Y-114218341D01*
X146338820Y-114242569D01*
X146305145Y-114260568D01*
X146268604Y-114271653D01*
X146224462Y-114276000D01*
X144775538Y-114276000D01*
X144731396Y-114271653D01*
X144694855Y-114260568D01*
X144661180Y-114242569D01*
X144631659Y-114218341D01*
X144607431Y-114188820D01*
X144589432Y-114155145D01*
X144578347Y-114118604D01*
X144574000Y-114074462D01*
X144574000Y-113125538D01*
X144578347Y-113081396D01*
X144589432Y-113044855D01*
X144607431Y-113011180D01*
X144631659Y-112981659D01*
X144661180Y-112957431D01*
X144694855Y-112939432D01*
X144731396Y-112928347D01*
X144775538Y-112924000D01*
X146224462Y-112924000D01*
X146268604Y-112928347D01*
X146268604Y-112928347D01*
G37*
G36*
X148768604Y-112928347D02*
X148805145Y-112939432D01*
X148838820Y-112957431D01*
X148868341Y-112981659D01*
X148892569Y-113011180D01*
X148910568Y-113044855D01*
X148921653Y-113081396D01*
X148926000Y-113125538D01*
X148926000Y-114074462D01*
X148921653Y-114118604D01*
X148910568Y-114155145D01*
X148892569Y-114188820D01*
X148868341Y-114218341D01*
X148838820Y-114242569D01*
X148805145Y-114260568D01*
X148768604Y-114271653D01*
X148724462Y-114276000D01*
X147275538Y-114276000D01*
X147231396Y-114271653D01*
X147194855Y-114260568D01*
X147161180Y-114242569D01*
X147131659Y-114218341D01*
X147107431Y-114188820D01*
X147089432Y-114155145D01*
X147078347Y-114118604D01*
X147074000Y-114074462D01*
X147074000Y-113125538D01*
X147078347Y-113081396D01*
X147089432Y-113044855D01*
X147107431Y-113011180D01*
X147131659Y-112981659D01*
X147161180Y-112957431D01*
X147194855Y-112939432D01*
X147231396Y-112928347D01*
X147275538Y-112924000D01*
X148724462Y-112924000D01*
X148768604Y-112928347D01*
X148768604Y-112928347D01*
G37*
G36*
X154741938Y-113131716D02*
X154762556Y-113137970D01*
X154781556Y-113148126D01*
X154798208Y-113161792D01*
X154811874Y-113178444D01*
X154822030Y-113197444D01*
X154828284Y-113218062D01*
X154831000Y-113245640D01*
X154831000Y-113754360D01*
X154828284Y-113781938D01*
X154822030Y-113802556D01*
X154811874Y-113821556D01*
X154798208Y-113838208D01*
X154781556Y-113851874D01*
X154762556Y-113862030D01*
X154741938Y-113868284D01*
X154714360Y-113871000D01*
X154255640Y-113871000D01*
X154228062Y-113868284D01*
X154207444Y-113862030D01*
X154188444Y-113851874D01*
X154171792Y-113838208D01*
X154158126Y-113821556D01*
X154147970Y-113802556D01*
X154141716Y-113781938D01*
X154139000Y-113754360D01*
X154139000Y-113245640D01*
X154141716Y-113218062D01*
X154147970Y-113197444D01*
X154158126Y-113178444D01*
X154171792Y-113161792D01*
X154188444Y-113148126D01*
X154207444Y-113137970D01*
X154228062Y-113131716D01*
X154255640Y-113129000D01*
X154714360Y-113129000D01*
X154741938Y-113131716D01*
X154741938Y-113131716D01*
G37*
G36*
X153771938Y-113131716D02*
X153792556Y-113137970D01*
X153811556Y-113148126D01*
X153828208Y-113161792D01*
X153841874Y-113178444D01*
X153852030Y-113197444D01*
X153858284Y-113218062D01*
X153861000Y-113245640D01*
X153861000Y-113754360D01*
X153858284Y-113781938D01*
X153852030Y-113802556D01*
X153841874Y-113821556D01*
X153828208Y-113838208D01*
X153811556Y-113851874D01*
X153792556Y-113862030D01*
X153771938Y-113868284D01*
X153744360Y-113871000D01*
X153285640Y-113871000D01*
X153258062Y-113868284D01*
X153237444Y-113862030D01*
X153218444Y-113851874D01*
X153201792Y-113838208D01*
X153188126Y-113821556D01*
X153177970Y-113802556D01*
X153171716Y-113781938D01*
X153169000Y-113754360D01*
X153169000Y-113245640D01*
X153171716Y-113218062D01*
X153177970Y-113197444D01*
X153188126Y-113178444D01*
X153201792Y-113161792D01*
X153218444Y-113148126D01*
X153237444Y-113137970D01*
X153258062Y-113131716D01*
X153285640Y-113129000D01*
X153744360Y-113129000D01*
X153771938Y-113131716D01*
X153771938Y-113131716D01*
G37*
G36*
X140281938Y-113171716D02*
X140302556Y-113177970D01*
X140321556Y-113188126D01*
X140338208Y-113201792D01*
X140351874Y-113218444D01*
X140362030Y-113237444D01*
X140368284Y-113258062D01*
X140371000Y-113285640D01*
X140371000Y-113744360D01*
X140368284Y-113771938D01*
X140362030Y-113792556D01*
X140351874Y-113811556D01*
X140338208Y-113828208D01*
X140321556Y-113841874D01*
X140302556Y-113852030D01*
X140281938Y-113858284D01*
X140254360Y-113861000D01*
X139745640Y-113861000D01*
X139718062Y-113858284D01*
X139697444Y-113852030D01*
X139678444Y-113841874D01*
X139661792Y-113828208D01*
X139648126Y-113811556D01*
X139637970Y-113792556D01*
X139631716Y-113771938D01*
X139629000Y-113744360D01*
X139629000Y-113285640D01*
X139631716Y-113258062D01*
X139637970Y-113237444D01*
X139648126Y-113218444D01*
X139661792Y-113201792D01*
X139678444Y-113188126D01*
X139697444Y-113177970D01*
X139718062Y-113171716D01*
X139745640Y-113169000D01*
X140254360Y-113169000D01*
X140281938Y-113171716D01*
X140281938Y-113171716D01*
G37*
G36*
X139281938Y-113171716D02*
X139302556Y-113177970D01*
X139321556Y-113188126D01*
X139338208Y-113201792D01*
X139351874Y-113218444D01*
X139362030Y-113237444D01*
X139368284Y-113258062D01*
X139371000Y-113285640D01*
X139371000Y-113744360D01*
X139368284Y-113771938D01*
X139362030Y-113792556D01*
X139351874Y-113811556D01*
X139338208Y-113828208D01*
X139321556Y-113841874D01*
X139302556Y-113852030D01*
X139281938Y-113858284D01*
X139254360Y-113861000D01*
X138745640Y-113861000D01*
X138718062Y-113858284D01*
X138697444Y-113852030D01*
X138678444Y-113841874D01*
X138661792Y-113828208D01*
X138648126Y-113811556D01*
X138637970Y-113792556D01*
X138631716Y-113771938D01*
X138629000Y-113744360D01*
X138629000Y-113285640D01*
X138631716Y-113258062D01*
X138637970Y-113237444D01*
X138648126Y-113218444D01*
X138661792Y-113201792D01*
X138678444Y-113188126D01*
X138697444Y-113177970D01*
X138718062Y-113171716D01*
X138745640Y-113169000D01*
X139254360Y-113169000D01*
X139281938Y-113171716D01*
X139281938Y-113171716D01*
G37*
G36*
X143651000Y-113851000D02*
X142349000Y-113851000D01*
X142349000Y-112849000D01*
X143651000Y-112849000D01*
X143651000Y-113851000D01*
X143651000Y-113851000D01*
G37*
G36*
X162768604Y-111728347D02*
X162805145Y-111739432D01*
X162838820Y-111757431D01*
X162868341Y-111781659D01*
X162892569Y-111811180D01*
X162910568Y-111844855D01*
X162921653Y-111881396D01*
X162926000Y-111925538D01*
X162926000Y-112874462D01*
X162921653Y-112918604D01*
X162910568Y-112955145D01*
X162892569Y-112988820D01*
X162868341Y-113018341D01*
X162838820Y-113042569D01*
X162805145Y-113060568D01*
X162768604Y-113071653D01*
X162724462Y-113076000D01*
X161275538Y-113076000D01*
X161231396Y-113071653D01*
X161194855Y-113060568D01*
X161161180Y-113042569D01*
X161131659Y-113018341D01*
X161107431Y-112988820D01*
X161089432Y-112955145D01*
X161078347Y-112918604D01*
X161074000Y-112874462D01*
X161074000Y-111925538D01*
X161078347Y-111881396D01*
X161089432Y-111844855D01*
X161107431Y-111811180D01*
X161131659Y-111781659D01*
X161161180Y-111757431D01*
X161194855Y-111739432D01*
X161231396Y-111728347D01*
X161275538Y-111724000D01*
X162724462Y-111724000D01*
X162768604Y-111728347D01*
X162768604Y-111728347D01*
G37*
G36*
X141281938Y-112141716D02*
X141302556Y-112147970D01*
X141321556Y-112158126D01*
X141338208Y-112171792D01*
X141351874Y-112188444D01*
X141362030Y-112207444D01*
X141368284Y-112228062D01*
X141371000Y-112255640D01*
X141371000Y-112714360D01*
X141368284Y-112741938D01*
X141362030Y-112762556D01*
X141351874Y-112781556D01*
X141338208Y-112798208D01*
X141321556Y-112811874D01*
X141302556Y-112822030D01*
X141281938Y-112828284D01*
X141254360Y-112831000D01*
X140745640Y-112831000D01*
X140718062Y-112828284D01*
X140697444Y-112822030D01*
X140678444Y-112811874D01*
X140661792Y-112798208D01*
X140648126Y-112781556D01*
X140637970Y-112762556D01*
X140631716Y-112741938D01*
X140629000Y-112714360D01*
X140629000Y-112255640D01*
X140631716Y-112228062D01*
X140637970Y-112207444D01*
X140648126Y-112188444D01*
X140661792Y-112171792D01*
X140678444Y-112158126D01*
X140697444Y-112147970D01*
X140718062Y-112141716D01*
X140745640Y-112139000D01*
X141254360Y-112139000D01*
X141281938Y-112141716D01*
X141281938Y-112141716D01*
G37*
G36*
X152781938Y-112141716D02*
X152802556Y-112147970D01*
X152821556Y-112158126D01*
X152838208Y-112171792D01*
X152851874Y-112188444D01*
X152862030Y-112207444D01*
X152868284Y-112228062D01*
X152871000Y-112255640D01*
X152871000Y-112714360D01*
X152868284Y-112741938D01*
X152862030Y-112762556D01*
X152851874Y-112781556D01*
X152838208Y-112798208D01*
X152821556Y-112811874D01*
X152802556Y-112822030D01*
X152781938Y-112828284D01*
X152754360Y-112831000D01*
X152245640Y-112831000D01*
X152218062Y-112828284D01*
X152197444Y-112822030D01*
X152178444Y-112811874D01*
X152161792Y-112798208D01*
X152148126Y-112781556D01*
X152137970Y-112762556D01*
X152131716Y-112741938D01*
X152129000Y-112714360D01*
X152129000Y-112255640D01*
X152131716Y-112228062D01*
X152137970Y-112207444D01*
X152148126Y-112188444D01*
X152161792Y-112171792D01*
X152178444Y-112158126D01*
X152197444Y-112147970D01*
X152218062Y-112141716D01*
X152245640Y-112139000D01*
X152754360Y-112139000D01*
X152781938Y-112141716D01*
X152781938Y-112141716D01*
G37*
G36*
X153781938Y-112141716D02*
X153802556Y-112147970D01*
X153821556Y-112158126D01*
X153838208Y-112171792D01*
X153851874Y-112188444D01*
X153862030Y-112207444D01*
X153868284Y-112228062D01*
X153871000Y-112255640D01*
X153871000Y-112714360D01*
X153868284Y-112741938D01*
X153862030Y-112762556D01*
X153851874Y-112781556D01*
X153838208Y-112798208D01*
X153821556Y-112811874D01*
X153802556Y-112822030D01*
X153781938Y-112828284D01*
X153754360Y-112831000D01*
X153245640Y-112831000D01*
X153218062Y-112828284D01*
X153197444Y-112822030D01*
X153178444Y-112811874D01*
X153161792Y-112798208D01*
X153148126Y-112781556D01*
X153137970Y-112762556D01*
X153131716Y-112741938D01*
X153129000Y-112714360D01*
X153129000Y-112255640D01*
X153131716Y-112228062D01*
X153137970Y-112207444D01*
X153148126Y-112188444D01*
X153161792Y-112171792D01*
X153178444Y-112158126D01*
X153197444Y-112147970D01*
X153218062Y-112141716D01*
X153245640Y-112139000D01*
X153754360Y-112139000D01*
X153781938Y-112141716D01*
X153781938Y-112141716D01*
G37*
G36*
X139281938Y-112141716D02*
X139302556Y-112147970D01*
X139321556Y-112158126D01*
X139338208Y-112171792D01*
X139351874Y-112188444D01*
X139362030Y-112207444D01*
X139368284Y-112228062D01*
X139371000Y-112255640D01*
X139371000Y-112714360D01*
X139368284Y-112741938D01*
X139362030Y-112762556D01*
X139351874Y-112781556D01*
X139338208Y-112798208D01*
X139321556Y-112811874D01*
X139302556Y-112822030D01*
X139281938Y-112828284D01*
X139254360Y-112831000D01*
X138745640Y-112831000D01*
X138718062Y-112828284D01*
X138697444Y-112822030D01*
X138678444Y-112811874D01*
X138661792Y-112798208D01*
X138648126Y-112781556D01*
X138637970Y-112762556D01*
X138631716Y-112741938D01*
X138629000Y-112714360D01*
X138629000Y-112255640D01*
X138631716Y-112228062D01*
X138637970Y-112207444D01*
X138648126Y-112188444D01*
X138661792Y-112171792D01*
X138678444Y-112158126D01*
X138697444Y-112147970D01*
X138718062Y-112141716D01*
X138745640Y-112139000D01*
X139254360Y-112139000D01*
X139281938Y-112141716D01*
X139281938Y-112141716D01*
G37*
G36*
X155391000Y-112386000D02*
X154399000Y-112386000D01*
X154399000Y-108614000D01*
X155391000Y-108614000D01*
X155391000Y-112386000D01*
X155391000Y-112386000D01*
G37*
G36*
X159601000Y-112386000D02*
X158609000Y-112386000D01*
X158609000Y-108614000D01*
X159601000Y-108614000D01*
X159601000Y-112386000D01*
X159601000Y-112386000D01*
G37*
G36*
X170054591Y-110978085D02*
X170088569Y-110988393D01*
X170119887Y-111005133D01*
X170147339Y-111027661D01*
X170169867Y-111055113D01*
X170186607Y-111086431D01*
X170196915Y-111120409D01*
X170201000Y-111161890D01*
X170201000Y-111838110D01*
X170196915Y-111879591D01*
X170186607Y-111913569D01*
X170169867Y-111944887D01*
X170147339Y-111972339D01*
X170119887Y-111994867D01*
X170088569Y-112011607D01*
X170054591Y-112021915D01*
X170013110Y-112026000D01*
X169411890Y-112026000D01*
X169370409Y-112021915D01*
X169336431Y-112011607D01*
X169305113Y-111994867D01*
X169277661Y-111972339D01*
X169255133Y-111944887D01*
X169238393Y-111913569D01*
X169228085Y-111879591D01*
X169224000Y-111838110D01*
X169224000Y-111161890D01*
X169228085Y-111120409D01*
X169238393Y-111086431D01*
X169255133Y-111055113D01*
X169277661Y-111027661D01*
X169305113Y-111005133D01*
X169336431Y-110988393D01*
X169370409Y-110978085D01*
X169411890Y-110974000D01*
X170013110Y-110974000D01*
X170054591Y-110978085D01*
X170054591Y-110978085D01*
G37*
G36*
X171629591Y-110978085D02*
X171663569Y-110988393D01*
X171694887Y-111005133D01*
X171722339Y-111027661D01*
X171744867Y-111055113D01*
X171761607Y-111086431D01*
X171771915Y-111120409D01*
X171776000Y-111161890D01*
X171776000Y-111838110D01*
X171771915Y-111879591D01*
X171761607Y-111913569D01*
X171744867Y-111944887D01*
X171722339Y-111972339D01*
X171694887Y-111994867D01*
X171663569Y-112011607D01*
X171629591Y-112021915D01*
X171588110Y-112026000D01*
X170986890Y-112026000D01*
X170945409Y-112021915D01*
X170911431Y-112011607D01*
X170880113Y-111994867D01*
X170852661Y-111972339D01*
X170830133Y-111944887D01*
X170813393Y-111913569D01*
X170803085Y-111879591D01*
X170799000Y-111838110D01*
X170799000Y-111161890D01*
X170803085Y-111120409D01*
X170813393Y-111086431D01*
X170830133Y-111055113D01*
X170852661Y-111027661D01*
X170880113Y-111005133D01*
X170911431Y-110988393D01*
X170945409Y-110978085D01*
X170986890Y-110974000D01*
X171588110Y-110974000D01*
X171629591Y-110978085D01*
X171629591Y-110978085D01*
G37*
G36*
X157876000Y-111976000D02*
X156124000Y-111976000D01*
X156124000Y-109024000D01*
X157876000Y-109024000D01*
X157876000Y-111976000D01*
X157876000Y-111976000D01*
G37*
G36*
X138226000Y-111901000D02*
X137144000Y-111901000D01*
X137144000Y-108099000D01*
X138226000Y-108099000D01*
X138226000Y-111901000D01*
X138226000Y-111901000D01*
G37*
G36*
X135856000Y-111901000D02*
X134774000Y-111901000D01*
X134774000Y-108099000D01*
X135856000Y-108099000D01*
X135856000Y-111901000D01*
X135856000Y-111901000D01*
G37*
G36*
X142856000Y-111901000D02*
X141774000Y-111901000D01*
X141774000Y-108099000D01*
X142856000Y-108099000D01*
X142856000Y-111901000D01*
X142856000Y-111901000D01*
G37*
G36*
X145226000Y-111901000D02*
X144144000Y-111901000D01*
X144144000Y-108099000D01*
X145226000Y-108099000D01*
X145226000Y-111901000D01*
X145226000Y-111901000D01*
G37*
G36*
X168476938Y-111131716D02*
X168497556Y-111137970D01*
X168516556Y-111148126D01*
X168533208Y-111161792D01*
X168546874Y-111178444D01*
X168557030Y-111197444D01*
X168563284Y-111218062D01*
X168566000Y-111245640D01*
X168566000Y-111754360D01*
X168563284Y-111781938D01*
X168557030Y-111802556D01*
X168546874Y-111821556D01*
X168533208Y-111838208D01*
X168516556Y-111851874D01*
X168497556Y-111862030D01*
X168476938Y-111868284D01*
X168449360Y-111871000D01*
X167990640Y-111871000D01*
X167963062Y-111868284D01*
X167942444Y-111862030D01*
X167923444Y-111851874D01*
X167906792Y-111838208D01*
X167893126Y-111821556D01*
X167882970Y-111802556D01*
X167876716Y-111781938D01*
X167874000Y-111754360D01*
X167874000Y-111245640D01*
X167876716Y-111218062D01*
X167882970Y-111197444D01*
X167893126Y-111178444D01*
X167906792Y-111161792D01*
X167923444Y-111148126D01*
X167942444Y-111137970D01*
X167963062Y-111131716D01*
X167990640Y-111129000D01*
X168449360Y-111129000D01*
X168476938Y-111131716D01*
X168476938Y-111131716D01*
G37*
G36*
X167506938Y-111131716D02*
X167527556Y-111137970D01*
X167546556Y-111148126D01*
X167563208Y-111161792D01*
X167576874Y-111178444D01*
X167587030Y-111197444D01*
X167593284Y-111218062D01*
X167596000Y-111245640D01*
X167596000Y-111754360D01*
X167593284Y-111781938D01*
X167587030Y-111802556D01*
X167576874Y-111821556D01*
X167563208Y-111838208D01*
X167546556Y-111851874D01*
X167527556Y-111862030D01*
X167506938Y-111868284D01*
X167479360Y-111871000D01*
X167020640Y-111871000D01*
X166993062Y-111868284D01*
X166972444Y-111862030D01*
X166953444Y-111851874D01*
X166936792Y-111838208D01*
X166923126Y-111821556D01*
X166912970Y-111802556D01*
X166906716Y-111781938D01*
X166904000Y-111754360D01*
X166904000Y-111245640D01*
X166906716Y-111218062D01*
X166912970Y-111197444D01*
X166923126Y-111178444D01*
X166936792Y-111161792D01*
X166953444Y-111148126D01*
X166972444Y-111137970D01*
X166993062Y-111131716D01*
X167020640Y-111129000D01*
X167479360Y-111129000D01*
X167506938Y-111131716D01*
X167506938Y-111131716D01*
G37*
G36*
X152781938Y-111171716D02*
X152802556Y-111177970D01*
X152821556Y-111188126D01*
X152838208Y-111201792D01*
X152851874Y-111218444D01*
X152862030Y-111237444D01*
X152868284Y-111258062D01*
X152871000Y-111285640D01*
X152871000Y-111744360D01*
X152868284Y-111771938D01*
X152862030Y-111792556D01*
X152851874Y-111811556D01*
X152838208Y-111828208D01*
X152821556Y-111841874D01*
X152802556Y-111852030D01*
X152781938Y-111858284D01*
X152754360Y-111861000D01*
X152245640Y-111861000D01*
X152218062Y-111858284D01*
X152197444Y-111852030D01*
X152178444Y-111841874D01*
X152161792Y-111828208D01*
X152148126Y-111811556D01*
X152137970Y-111792556D01*
X152131716Y-111771938D01*
X152129000Y-111744360D01*
X152129000Y-111285640D01*
X152131716Y-111258062D01*
X152137970Y-111237444D01*
X152148126Y-111218444D01*
X152161792Y-111201792D01*
X152178444Y-111188126D01*
X152197444Y-111177970D01*
X152218062Y-111171716D01*
X152245640Y-111169000D01*
X152754360Y-111169000D01*
X152781938Y-111171716D01*
X152781938Y-111171716D01*
G37*
G36*
X141281938Y-111171716D02*
X141302556Y-111177970D01*
X141321556Y-111188126D01*
X141338208Y-111201792D01*
X141351874Y-111218444D01*
X141362030Y-111237444D01*
X141368284Y-111258062D01*
X141371000Y-111285640D01*
X141371000Y-111744360D01*
X141368284Y-111771938D01*
X141362030Y-111792556D01*
X141351874Y-111811556D01*
X141338208Y-111828208D01*
X141321556Y-111841874D01*
X141302556Y-111852030D01*
X141281938Y-111858284D01*
X141254360Y-111861000D01*
X140745640Y-111861000D01*
X140718062Y-111858284D01*
X140697444Y-111852030D01*
X140678444Y-111841874D01*
X140661792Y-111828208D01*
X140648126Y-111811556D01*
X140637970Y-111792556D01*
X140631716Y-111771938D01*
X140629000Y-111744360D01*
X140629000Y-111285640D01*
X140631716Y-111258062D01*
X140637970Y-111237444D01*
X140648126Y-111218444D01*
X140661792Y-111201792D01*
X140678444Y-111188126D01*
X140697444Y-111177970D01*
X140718062Y-111171716D01*
X140745640Y-111169000D01*
X141254360Y-111169000D01*
X141281938Y-111171716D01*
X141281938Y-111171716D01*
G37*
G36*
X139281938Y-111171716D02*
X139302556Y-111177970D01*
X139321556Y-111188126D01*
X139338208Y-111201792D01*
X139351874Y-111218444D01*
X139362030Y-111237444D01*
X139368284Y-111258062D01*
X139371000Y-111285640D01*
X139371000Y-111744360D01*
X139368284Y-111771938D01*
X139362030Y-111792556D01*
X139351874Y-111811556D01*
X139338208Y-111828208D01*
X139321556Y-111841874D01*
X139302556Y-111852030D01*
X139281938Y-111858284D01*
X139254360Y-111861000D01*
X138745640Y-111861000D01*
X138718062Y-111858284D01*
X138697444Y-111852030D01*
X138678444Y-111841874D01*
X138661792Y-111828208D01*
X138648126Y-111811556D01*
X138637970Y-111792556D01*
X138631716Y-111771938D01*
X138629000Y-111744360D01*
X138629000Y-111285640D01*
X138631716Y-111258062D01*
X138637970Y-111237444D01*
X138648126Y-111218444D01*
X138661792Y-111201792D01*
X138678444Y-111188126D01*
X138697444Y-111177970D01*
X138718062Y-111171716D01*
X138745640Y-111169000D01*
X139254360Y-111169000D01*
X139281938Y-111171716D01*
X139281938Y-111171716D01*
G37*
G36*
X153781938Y-111171716D02*
X153802556Y-111177970D01*
X153821556Y-111188126D01*
X153838208Y-111201792D01*
X153851874Y-111218444D01*
X153862030Y-111237444D01*
X153868284Y-111258062D01*
X153871000Y-111285640D01*
X153871000Y-111744360D01*
X153868284Y-111771938D01*
X153862030Y-111792556D01*
X153851874Y-111811556D01*
X153838208Y-111828208D01*
X153821556Y-111841874D01*
X153802556Y-111852030D01*
X153781938Y-111858284D01*
X153754360Y-111861000D01*
X153245640Y-111861000D01*
X153218062Y-111858284D01*
X153197444Y-111852030D01*
X153178444Y-111841874D01*
X153161792Y-111828208D01*
X153148126Y-111811556D01*
X153137970Y-111792556D01*
X153131716Y-111771938D01*
X153129000Y-111744360D01*
X153129000Y-111285640D01*
X153131716Y-111258062D01*
X153137970Y-111237444D01*
X153148126Y-111218444D01*
X153161792Y-111201792D01*
X153178444Y-111188126D01*
X153197444Y-111177970D01*
X153218062Y-111171716D01*
X153245640Y-111169000D01*
X153754360Y-111169000D01*
X153781938Y-111171716D01*
X153781938Y-111171716D01*
G37*
G36*
X164281938Y-111141716D02*
X164302556Y-111147970D01*
X164321556Y-111158126D01*
X164338208Y-111171792D01*
X164351874Y-111188444D01*
X164362030Y-111207444D01*
X164368284Y-111228062D01*
X164371000Y-111255640D01*
X164371000Y-111714360D01*
X164368284Y-111741938D01*
X164362030Y-111762556D01*
X164351874Y-111781556D01*
X164338208Y-111798208D01*
X164321556Y-111811874D01*
X164302556Y-111822030D01*
X164281938Y-111828284D01*
X164254360Y-111831000D01*
X163745640Y-111831000D01*
X163718062Y-111828284D01*
X163697444Y-111822030D01*
X163678444Y-111811874D01*
X163661792Y-111798208D01*
X163648126Y-111781556D01*
X163637970Y-111762556D01*
X163631716Y-111741938D01*
X163629000Y-111714360D01*
X163629000Y-111255640D01*
X163631716Y-111228062D01*
X163637970Y-111207444D01*
X163648126Y-111188444D01*
X163661792Y-111171792D01*
X163678444Y-111158126D01*
X163697444Y-111147970D01*
X163718062Y-111141716D01*
X163745640Y-111139000D01*
X164254360Y-111139000D01*
X164281938Y-111141716D01*
X164281938Y-111141716D01*
G37*
G36*
X165781938Y-111141716D02*
X165802556Y-111147970D01*
X165821556Y-111158126D01*
X165838208Y-111171792D01*
X165851874Y-111188444D01*
X165862030Y-111207444D01*
X165868284Y-111228062D01*
X165871000Y-111255640D01*
X165871000Y-111714360D01*
X165868284Y-111741938D01*
X165862030Y-111762556D01*
X165851874Y-111781556D01*
X165838208Y-111798208D01*
X165821556Y-111811874D01*
X165802556Y-111822030D01*
X165781938Y-111828284D01*
X165754360Y-111831000D01*
X165245640Y-111831000D01*
X165218062Y-111828284D01*
X165197444Y-111822030D01*
X165178444Y-111811874D01*
X165161792Y-111798208D01*
X165148126Y-111781556D01*
X165137970Y-111762556D01*
X165131716Y-111741938D01*
X165129000Y-111714360D01*
X165129000Y-111255640D01*
X165131716Y-111228062D01*
X165137970Y-111207444D01*
X165148126Y-111188444D01*
X165161792Y-111171792D01*
X165178444Y-111158126D01*
X165197444Y-111147970D01*
X165218062Y-111141716D01*
X165245640Y-111139000D01*
X165754360Y-111139000D01*
X165781938Y-111141716D01*
X165781938Y-111141716D01*
G37*
G36*
X165781938Y-110171716D02*
X165802556Y-110177970D01*
X165821556Y-110188126D01*
X165838208Y-110201792D01*
X165851874Y-110218444D01*
X165862030Y-110237444D01*
X165868284Y-110258062D01*
X165871000Y-110285640D01*
X165871000Y-110744360D01*
X165868284Y-110771938D01*
X165862030Y-110792556D01*
X165851874Y-110811556D01*
X165838208Y-110828208D01*
X165821556Y-110841874D01*
X165802556Y-110852030D01*
X165781938Y-110858284D01*
X165754360Y-110861000D01*
X165245640Y-110861000D01*
X165218062Y-110858284D01*
X165197444Y-110852030D01*
X165178444Y-110841874D01*
X165161792Y-110828208D01*
X165148126Y-110811556D01*
X165137970Y-110792556D01*
X165131716Y-110771938D01*
X165129000Y-110744360D01*
X165129000Y-110285640D01*
X165131716Y-110258062D01*
X165137970Y-110237444D01*
X165148126Y-110218444D01*
X165161792Y-110201792D01*
X165178444Y-110188126D01*
X165197444Y-110177970D01*
X165218062Y-110171716D01*
X165245640Y-110169000D01*
X165754360Y-110169000D01*
X165781938Y-110171716D01*
X165781938Y-110171716D01*
G37*
G36*
X164281938Y-110171716D02*
X164302556Y-110177970D01*
X164321556Y-110188126D01*
X164338208Y-110201792D01*
X164351874Y-110218444D01*
X164362030Y-110237444D01*
X164368284Y-110258062D01*
X164371000Y-110285640D01*
X164371000Y-110744360D01*
X164368284Y-110771938D01*
X164362030Y-110792556D01*
X164351874Y-110811556D01*
X164338208Y-110828208D01*
X164321556Y-110841874D01*
X164302556Y-110852030D01*
X164281938Y-110858284D01*
X164254360Y-110861000D01*
X163745640Y-110861000D01*
X163718062Y-110858284D01*
X163697444Y-110852030D01*
X163678444Y-110841874D01*
X163661792Y-110828208D01*
X163648126Y-110811556D01*
X163637970Y-110792556D01*
X163631716Y-110771938D01*
X163629000Y-110744360D01*
X163629000Y-110285640D01*
X163631716Y-110258062D01*
X163637970Y-110237444D01*
X163648126Y-110218444D01*
X163661792Y-110201792D01*
X163678444Y-110188126D01*
X163697444Y-110177970D01*
X163718062Y-110171716D01*
X163745640Y-110169000D01*
X164254360Y-110169000D01*
X164281938Y-110171716D01*
X164281938Y-110171716D01*
G37*
G36*
X141281938Y-109641716D02*
X141302556Y-109647970D01*
X141321556Y-109658126D01*
X141338208Y-109671792D01*
X141351874Y-109688444D01*
X141362030Y-109707444D01*
X141368284Y-109728062D01*
X141371000Y-109755640D01*
X141371000Y-110214360D01*
X141368284Y-110241938D01*
X141362030Y-110262556D01*
X141351874Y-110281556D01*
X141338208Y-110298208D01*
X141321556Y-110311874D01*
X141302556Y-110322030D01*
X141281938Y-110328284D01*
X141254360Y-110331000D01*
X140745640Y-110331000D01*
X140718062Y-110328284D01*
X140697444Y-110322030D01*
X140678444Y-110311874D01*
X140661792Y-110298208D01*
X140648126Y-110281556D01*
X140637970Y-110262556D01*
X140631716Y-110241938D01*
X140629000Y-110214360D01*
X140629000Y-109755640D01*
X140631716Y-109728062D01*
X140637970Y-109707444D01*
X140648126Y-109688444D01*
X140661792Y-109671792D01*
X140678444Y-109658126D01*
X140697444Y-109647970D01*
X140718062Y-109641716D01*
X140745640Y-109639000D01*
X141254360Y-109639000D01*
X141281938Y-109641716D01*
X141281938Y-109641716D01*
G37*
G36*
X139281938Y-109641716D02*
X139302556Y-109647970D01*
X139321556Y-109658126D01*
X139338208Y-109671792D01*
X139351874Y-109688444D01*
X139362030Y-109707444D01*
X139368284Y-109728062D01*
X139371000Y-109755640D01*
X139371000Y-110214360D01*
X139368284Y-110241938D01*
X139362030Y-110262556D01*
X139351874Y-110281556D01*
X139338208Y-110298208D01*
X139321556Y-110311874D01*
X139302556Y-110322030D01*
X139281938Y-110328284D01*
X139254360Y-110331000D01*
X138745640Y-110331000D01*
X138718062Y-110328284D01*
X138697444Y-110322030D01*
X138678444Y-110311874D01*
X138661792Y-110298208D01*
X138648126Y-110281556D01*
X138637970Y-110262556D01*
X138631716Y-110241938D01*
X138629000Y-110214360D01*
X138629000Y-109755640D01*
X138631716Y-109728062D01*
X138637970Y-109707444D01*
X138648126Y-109688444D01*
X138661792Y-109671792D01*
X138678444Y-109658126D01*
X138697444Y-109647970D01*
X138718062Y-109641716D01*
X138745640Y-109639000D01*
X139254360Y-109639000D01*
X139281938Y-109641716D01*
X139281938Y-109641716D01*
G37*
G36*
X162768604Y-108928347D02*
X162805145Y-108939432D01*
X162838820Y-108957431D01*
X162868341Y-108981659D01*
X162892569Y-109011180D01*
X162910568Y-109044855D01*
X162921653Y-109081396D01*
X162926000Y-109125538D01*
X162926000Y-110074462D01*
X162921653Y-110118604D01*
X162910568Y-110155145D01*
X162892569Y-110188820D01*
X162868341Y-110218341D01*
X162838820Y-110242569D01*
X162805145Y-110260568D01*
X162768604Y-110271653D01*
X162724462Y-110276000D01*
X161275538Y-110276000D01*
X161231396Y-110271653D01*
X161194855Y-110260568D01*
X161161180Y-110242569D01*
X161131659Y-110218341D01*
X161107431Y-110188820D01*
X161089432Y-110155145D01*
X161078347Y-110118604D01*
X161074000Y-110074462D01*
X161074000Y-109125538D01*
X161078347Y-109081396D01*
X161089432Y-109044855D01*
X161107431Y-109011180D01*
X161131659Y-108981659D01*
X161161180Y-108957431D01*
X161194855Y-108939432D01*
X161231396Y-108928347D01*
X161275538Y-108924000D01*
X162724462Y-108924000D01*
X162768604Y-108928347D01*
X162768604Y-108928347D01*
G37*
G36*
X171935918Y-108152934D02*
X171968424Y-108162795D01*
X171998383Y-108178808D01*
X172024641Y-108200359D01*
X172046192Y-108226617D01*
X172062205Y-108256576D01*
X172072066Y-108289082D01*
X172076000Y-108329029D01*
X172076000Y-109870971D01*
X172072066Y-109910918D01*
X172062205Y-109943424D01*
X172046192Y-109973383D01*
X172024641Y-109999641D01*
X171998383Y-110021192D01*
X171968424Y-110037205D01*
X171935918Y-110047066D01*
X171895971Y-110051000D01*
X168354029Y-110051000D01*
X168314082Y-110047066D01*
X168281576Y-110037205D01*
X168251617Y-110021192D01*
X168225359Y-109999641D01*
X168203808Y-109973383D01*
X168187795Y-109943424D01*
X168177934Y-109910918D01*
X168174000Y-109870971D01*
X168174000Y-108329029D01*
X168177934Y-108289082D01*
X168187795Y-108256576D01*
X168203808Y-108226617D01*
X168225359Y-108200359D01*
X168251617Y-108178808D01*
X168281576Y-108162795D01*
X168314082Y-108152934D01*
X168354029Y-108149000D01*
X171895971Y-108149000D01*
X171935918Y-108152934D01*
X171935918Y-108152934D01*
G37*
G36*
X141281938Y-108671716D02*
X141302556Y-108677970D01*
X141321556Y-108688126D01*
X141338208Y-108701792D01*
X141351874Y-108718444D01*
X141362030Y-108737444D01*
X141368284Y-108758062D01*
X141371000Y-108785640D01*
X141371000Y-109244360D01*
X141368284Y-109271938D01*
X141362030Y-109292556D01*
X141351874Y-109311556D01*
X141338208Y-109328208D01*
X141321556Y-109341874D01*
X141302556Y-109352030D01*
X141281938Y-109358284D01*
X141254360Y-109361000D01*
X140745640Y-109361000D01*
X140718062Y-109358284D01*
X140697444Y-109352030D01*
X140678444Y-109341874D01*
X140661792Y-109328208D01*
X140648126Y-109311556D01*
X140637970Y-109292556D01*
X140631716Y-109271938D01*
X140629000Y-109244360D01*
X140629000Y-108785640D01*
X140631716Y-108758062D01*
X140637970Y-108737444D01*
X140648126Y-108718444D01*
X140661792Y-108701792D01*
X140678444Y-108688126D01*
X140697444Y-108677970D01*
X140718062Y-108671716D01*
X140745640Y-108669000D01*
X141254360Y-108669000D01*
X141281938Y-108671716D01*
X141281938Y-108671716D01*
G37*
G36*
X139281938Y-108671716D02*
X139302556Y-108677970D01*
X139321556Y-108688126D01*
X139338208Y-108701792D01*
X139351874Y-108718444D01*
X139362030Y-108737444D01*
X139368284Y-108758062D01*
X139371000Y-108785640D01*
X139371000Y-109244360D01*
X139368284Y-109271938D01*
X139362030Y-109292556D01*
X139351874Y-109311556D01*
X139338208Y-109328208D01*
X139321556Y-109341874D01*
X139302556Y-109352030D01*
X139281938Y-109358284D01*
X139254360Y-109361000D01*
X138745640Y-109361000D01*
X138718062Y-109358284D01*
X138697444Y-109352030D01*
X138678444Y-109341874D01*
X138661792Y-109328208D01*
X138648126Y-109311556D01*
X138637970Y-109292556D01*
X138631716Y-109271938D01*
X138629000Y-109244360D01*
X138629000Y-108785640D01*
X138631716Y-108758062D01*
X138637970Y-108737444D01*
X138648126Y-108718444D01*
X138661792Y-108701792D01*
X138678444Y-108688126D01*
X138697444Y-108677970D01*
X138718062Y-108671716D01*
X138745640Y-108669000D01*
X139254360Y-108669000D01*
X139281938Y-108671716D01*
X139281938Y-108671716D01*
G37*
G36*
X129435918Y-107402934D02*
X129468424Y-107412795D01*
X129498383Y-107428808D01*
X129524641Y-107450359D01*
X129546192Y-107476617D01*
X129562205Y-107506576D01*
X129572066Y-107539082D01*
X129576000Y-107579029D01*
X129576000Y-109120971D01*
X129572066Y-109160918D01*
X129562205Y-109193424D01*
X129546192Y-109223383D01*
X129524641Y-109249641D01*
X129498383Y-109271192D01*
X129468424Y-109287205D01*
X129435918Y-109297066D01*
X129395971Y-109301000D01*
X125854029Y-109301000D01*
X125814082Y-109297066D01*
X125781576Y-109287205D01*
X125751617Y-109271192D01*
X125725359Y-109249641D01*
X125703808Y-109223383D01*
X125687795Y-109193424D01*
X125677934Y-109160918D01*
X125674000Y-109120971D01*
X125674000Y-107579029D01*
X125677934Y-107539082D01*
X125687795Y-107506576D01*
X125703808Y-107476617D01*
X125725359Y-107450359D01*
X125751617Y-107428808D01*
X125781576Y-107412795D01*
X125814082Y-107402934D01*
X125854029Y-107399000D01*
X129395971Y-107399000D01*
X129435918Y-107402934D01*
X129435918Y-107402934D01*
G37*
G36*
X162918604Y-105578347D02*
X162955145Y-105589432D01*
X162988820Y-105607431D01*
X163018341Y-105631659D01*
X163042569Y-105661180D01*
X163060568Y-105694855D01*
X163071653Y-105731396D01*
X163076000Y-105775538D01*
X163076000Y-107224462D01*
X163071653Y-107268604D01*
X163060568Y-107305145D01*
X163042569Y-107338820D01*
X163018341Y-107368341D01*
X162988820Y-107392569D01*
X162955145Y-107410568D01*
X162918604Y-107421653D01*
X162874462Y-107426000D01*
X161925538Y-107426000D01*
X161881396Y-107421653D01*
X161844855Y-107410568D01*
X161811180Y-107392569D01*
X161781659Y-107368341D01*
X161757431Y-107338820D01*
X161739432Y-107305145D01*
X161728347Y-107268604D01*
X161724000Y-107224462D01*
X161724000Y-105775538D01*
X161728347Y-105731396D01*
X161739432Y-105694855D01*
X161757431Y-105661180D01*
X161781659Y-105631659D01*
X161811180Y-105607431D01*
X161844855Y-105589432D01*
X161881396Y-105578347D01*
X161925538Y-105574000D01*
X162874462Y-105574000D01*
X162918604Y-105578347D01*
X162918604Y-105578347D01*
G37*
G36*
X160118604Y-105578347D02*
X160155145Y-105589432D01*
X160188820Y-105607431D01*
X160218341Y-105631659D01*
X160242569Y-105661180D01*
X160260568Y-105694855D01*
X160271653Y-105731396D01*
X160276000Y-105775538D01*
X160276000Y-107224462D01*
X160271653Y-107268604D01*
X160260568Y-107305145D01*
X160242569Y-107338820D01*
X160218341Y-107368341D01*
X160188820Y-107392569D01*
X160155145Y-107410568D01*
X160118604Y-107421653D01*
X160074462Y-107426000D01*
X159125538Y-107426000D01*
X159081396Y-107421653D01*
X159044855Y-107410568D01*
X159011180Y-107392569D01*
X158981659Y-107368341D01*
X158957431Y-107338820D01*
X158939432Y-107305145D01*
X158928347Y-107268604D01*
X158924000Y-107224462D01*
X158924000Y-105775538D01*
X158928347Y-105731396D01*
X158939432Y-105694855D01*
X158957431Y-105661180D01*
X158981659Y-105631659D01*
X159011180Y-105607431D01*
X159044855Y-105589432D01*
X159081396Y-105578347D01*
X159125538Y-105574000D01*
X160074462Y-105574000D01*
X160118604Y-105578347D01*
X160118604Y-105578347D01*
G37*
G36*
X137905357Y-102575083D02*
X137910028Y-102576500D01*
X137914330Y-102578800D01*
X137920705Y-102584031D01*
X137941080Y-102597644D01*
X137963719Y-102607020D01*
X137987753Y-102611800D01*
X138012257Y-102611799D01*
X138036291Y-102607017D01*
X138058929Y-102597639D01*
X138079295Y-102584031D01*
X138085670Y-102578800D01*
X138089972Y-102576500D01*
X138094643Y-102575083D01*
X138105641Y-102574000D01*
X138394359Y-102574000D01*
X138405357Y-102575083D01*
X138410028Y-102576500D01*
X138414330Y-102578800D01*
X138420705Y-102584031D01*
X138441080Y-102597644D01*
X138463719Y-102607020D01*
X138487753Y-102611800D01*
X138512257Y-102611799D01*
X138536291Y-102607017D01*
X138558929Y-102597639D01*
X138579295Y-102584031D01*
X138585670Y-102578800D01*
X138589972Y-102576500D01*
X138594643Y-102575083D01*
X138605641Y-102574000D01*
X138894359Y-102574000D01*
X138905357Y-102575083D01*
X138910028Y-102576500D01*
X138914330Y-102578800D01*
X138920705Y-102584031D01*
X138941080Y-102597644D01*
X138963719Y-102607020D01*
X138987753Y-102611800D01*
X139012257Y-102611799D01*
X139036291Y-102607017D01*
X139058929Y-102597639D01*
X139079295Y-102584031D01*
X139085670Y-102578800D01*
X139089972Y-102576500D01*
X139094643Y-102575083D01*
X139105641Y-102574000D01*
X139394359Y-102574000D01*
X139405357Y-102575083D01*
X139410028Y-102576500D01*
X139414330Y-102578800D01*
X139420705Y-102584031D01*
X139441080Y-102597644D01*
X139463719Y-102607020D01*
X139487753Y-102611800D01*
X139512257Y-102611799D01*
X139536291Y-102607017D01*
X139558929Y-102597639D01*
X139579295Y-102584031D01*
X139585670Y-102578800D01*
X139589972Y-102576500D01*
X139594643Y-102575083D01*
X139605641Y-102574000D01*
X139894359Y-102574000D01*
X139905357Y-102575083D01*
X139910028Y-102576500D01*
X139914330Y-102578800D01*
X139920705Y-102584031D01*
X139941080Y-102597644D01*
X139963719Y-102607020D01*
X139987753Y-102611800D01*
X140012257Y-102611799D01*
X140036291Y-102607017D01*
X140058929Y-102597639D01*
X140079295Y-102584031D01*
X140085670Y-102578800D01*
X140089972Y-102576500D01*
X140094643Y-102575083D01*
X140105641Y-102574000D01*
X140394359Y-102574000D01*
X140405357Y-102575083D01*
X140410028Y-102576500D01*
X140414330Y-102578800D01*
X140420705Y-102584031D01*
X140441080Y-102597644D01*
X140463719Y-102607020D01*
X140487753Y-102611800D01*
X140512257Y-102611799D01*
X140536291Y-102607017D01*
X140558929Y-102597639D01*
X140579295Y-102584031D01*
X140585670Y-102578800D01*
X140589972Y-102576500D01*
X140594643Y-102575083D01*
X140605641Y-102574000D01*
X140894359Y-102574000D01*
X140905357Y-102575083D01*
X140910028Y-102576500D01*
X140914330Y-102578800D01*
X140920705Y-102584031D01*
X140941080Y-102597644D01*
X140963719Y-102607020D01*
X140987753Y-102611800D01*
X141012257Y-102611799D01*
X141036291Y-102607017D01*
X141058929Y-102597639D01*
X141079295Y-102584031D01*
X141085670Y-102578800D01*
X141089972Y-102576500D01*
X141094643Y-102575083D01*
X141105641Y-102574000D01*
X141394359Y-102574000D01*
X141405357Y-102575083D01*
X141410028Y-102576500D01*
X141414330Y-102578800D01*
X141418104Y-102581896D01*
X141421200Y-102585670D01*
X141423500Y-102589972D01*
X141424917Y-102594643D01*
X141426000Y-102605641D01*
X141426000Y-103449000D01*
X141428402Y-103473386D01*
X141435515Y-103496835D01*
X141447066Y-103518446D01*
X141462612Y-103537388D01*
X141481554Y-103552934D01*
X141503165Y-103564485D01*
X141526614Y-103571598D01*
X141551000Y-103574000D01*
X142394359Y-103574000D01*
X142405357Y-103575083D01*
X142410028Y-103576500D01*
X142414330Y-103578800D01*
X142418104Y-103581896D01*
X142421200Y-103585670D01*
X142423500Y-103589972D01*
X142424917Y-103594643D01*
X142426000Y-103605641D01*
X142426000Y-103894359D01*
X142424917Y-103905357D01*
X142423500Y-103910028D01*
X142421200Y-103914330D01*
X142415969Y-103920705D01*
X142402356Y-103941080D01*
X142392980Y-103963719D01*
X142388200Y-103987753D01*
X142388201Y-104012257D01*
X142392983Y-104036291D01*
X142402361Y-104058929D01*
X142415969Y-104079295D01*
X142421200Y-104085670D01*
X142423500Y-104089972D01*
X142424917Y-104094643D01*
X142426000Y-104105641D01*
X142426000Y-104394359D01*
X142424917Y-104405357D01*
X142423500Y-104410028D01*
X142421200Y-104414330D01*
X142415969Y-104420705D01*
X142402356Y-104441080D01*
X142392980Y-104463719D01*
X142388200Y-104487753D01*
X142388201Y-104512257D01*
X142392983Y-104536291D01*
X142402361Y-104558929D01*
X142415969Y-104579295D01*
X142421200Y-104585670D01*
X142423500Y-104589972D01*
X142424917Y-104594643D01*
X142426000Y-104605641D01*
X142426000Y-104894359D01*
X142424917Y-104905357D01*
X142423500Y-104910028D01*
X142421200Y-104914330D01*
X142415969Y-104920705D01*
X142402356Y-104941080D01*
X142392980Y-104963719D01*
X142388200Y-104987753D01*
X142388201Y-105012257D01*
X142392983Y-105036291D01*
X142402361Y-105058929D01*
X142415969Y-105079295D01*
X142421200Y-105085670D01*
X142423500Y-105089972D01*
X142424917Y-105094643D01*
X142426000Y-105105641D01*
X142426000Y-105394359D01*
X142424917Y-105405357D01*
X142423500Y-105410028D01*
X142421200Y-105414330D01*
X142415969Y-105420705D01*
X142402356Y-105441080D01*
X142392980Y-105463719D01*
X142388200Y-105487753D01*
X142388201Y-105512257D01*
X142392983Y-105536291D01*
X142402361Y-105558929D01*
X142415969Y-105579295D01*
X142421200Y-105585670D01*
X142423500Y-105589972D01*
X142424917Y-105594643D01*
X142426000Y-105605641D01*
X142426000Y-105894359D01*
X142424917Y-105905357D01*
X142423500Y-105910028D01*
X142421200Y-105914330D01*
X142415969Y-105920705D01*
X142402356Y-105941080D01*
X142392980Y-105963719D01*
X142388200Y-105987753D01*
X142388201Y-106012257D01*
X142392983Y-106036291D01*
X142402361Y-106058929D01*
X142415969Y-106079295D01*
X142421200Y-106085670D01*
X142423500Y-106089972D01*
X142424917Y-106094643D01*
X142426000Y-106105641D01*
X142426000Y-106394359D01*
X142424917Y-106405357D01*
X142423500Y-106410028D01*
X142421200Y-106414330D01*
X142418104Y-106418104D01*
X142414330Y-106421200D01*
X142410028Y-106423500D01*
X142405357Y-106424917D01*
X142394359Y-106426000D01*
X141551000Y-106426000D01*
X141526614Y-106428402D01*
X141503165Y-106435515D01*
X141481554Y-106447066D01*
X141462612Y-106462612D01*
X141447066Y-106481554D01*
X141435515Y-106503165D01*
X141428402Y-106526614D01*
X141426000Y-106551000D01*
X141426000Y-107394359D01*
X141424917Y-107405357D01*
X141423500Y-107410028D01*
X141421200Y-107414330D01*
X141418104Y-107418104D01*
X141414330Y-107421200D01*
X141410028Y-107423500D01*
X141405357Y-107424917D01*
X141394359Y-107426000D01*
X141105641Y-107426000D01*
X141094643Y-107424917D01*
X141089972Y-107423500D01*
X141085670Y-107421200D01*
X141079295Y-107415969D01*
X141058920Y-107402356D01*
X141036281Y-107392980D01*
X141012247Y-107388200D01*
X140987743Y-107388201D01*
X140963709Y-107392983D01*
X140941071Y-107402361D01*
X140920705Y-107415969D01*
X140914330Y-107421200D01*
X140910028Y-107423500D01*
X140905357Y-107424917D01*
X140894359Y-107426000D01*
X140605641Y-107426000D01*
X140594643Y-107424917D01*
X140589972Y-107423500D01*
X140585670Y-107421200D01*
X140579295Y-107415969D01*
X140558920Y-107402356D01*
X140536281Y-107392980D01*
X140512247Y-107388200D01*
X140487743Y-107388201D01*
X140463709Y-107392983D01*
X140441071Y-107402361D01*
X140420705Y-107415969D01*
X140414330Y-107421200D01*
X140410028Y-107423500D01*
X140405357Y-107424917D01*
X140394359Y-107426000D01*
X140105641Y-107426000D01*
X140094643Y-107424917D01*
X140089972Y-107423500D01*
X140085670Y-107421200D01*
X140079295Y-107415969D01*
X140058920Y-107402356D01*
X140036281Y-107392980D01*
X140012247Y-107388200D01*
X139987743Y-107388201D01*
X139963709Y-107392983D01*
X139941071Y-107402361D01*
X139920705Y-107415969D01*
X139914330Y-107421200D01*
X139910028Y-107423500D01*
X139905357Y-107424917D01*
X139894359Y-107426000D01*
X139605641Y-107426000D01*
X139594643Y-107424917D01*
X139589972Y-107423500D01*
X139585670Y-107421200D01*
X139579295Y-107415969D01*
X139558920Y-107402356D01*
X139536281Y-107392980D01*
X139512247Y-107388200D01*
X139487743Y-107388201D01*
X139463709Y-107392983D01*
X139441071Y-107402361D01*
X139420705Y-107415969D01*
X139414330Y-107421200D01*
X139410028Y-107423500D01*
X139405357Y-107424917D01*
X139394359Y-107426000D01*
X139105641Y-107426000D01*
X139094643Y-107424917D01*
X139089972Y-107423500D01*
X139085670Y-107421200D01*
X139079295Y-107415969D01*
X139058920Y-107402356D01*
X139036281Y-107392980D01*
X139012247Y-107388200D01*
X138987743Y-107388201D01*
X138963709Y-107392983D01*
X138941071Y-107402361D01*
X138920705Y-107415969D01*
X138914330Y-107421200D01*
X138910028Y-107423500D01*
X138905357Y-107424917D01*
X138894359Y-107426000D01*
X138605641Y-107426000D01*
X138594643Y-107424917D01*
X138589972Y-107423500D01*
X138585670Y-107421200D01*
X138579295Y-107415969D01*
X138558920Y-107402356D01*
X138536281Y-107392980D01*
X138512247Y-107388200D01*
X138487743Y-107388201D01*
X138463709Y-107392983D01*
X138441071Y-107402361D01*
X138420705Y-107415969D01*
X138414330Y-107421200D01*
X138410028Y-107423500D01*
X138405357Y-107424917D01*
X138394359Y-107426000D01*
X138105641Y-107426000D01*
X138094643Y-107424917D01*
X138089972Y-107423500D01*
X138085670Y-107421200D01*
X138079295Y-107415969D01*
X138058920Y-107402356D01*
X138036281Y-107392980D01*
X138012247Y-107388200D01*
X137987743Y-107388201D01*
X137963709Y-107392983D01*
X137941071Y-107402361D01*
X137920705Y-107415969D01*
X137914330Y-107421200D01*
X137910028Y-107423500D01*
X137905357Y-107424917D01*
X137894359Y-107426000D01*
X137605641Y-107426000D01*
X137594643Y-107424917D01*
X137589972Y-107423500D01*
X137585670Y-107421200D01*
X137581896Y-107418104D01*
X137578800Y-107414330D01*
X137576500Y-107410028D01*
X137575083Y-107405357D01*
X137574000Y-107394359D01*
X137574000Y-106551000D01*
X137571598Y-106526614D01*
X137564485Y-106503165D01*
X137552934Y-106481554D01*
X137537388Y-106462612D01*
X137518446Y-106447066D01*
X137496835Y-106435515D01*
X137473386Y-106428402D01*
X137449000Y-106426000D01*
X136605641Y-106426000D01*
X136594643Y-106424917D01*
X136589972Y-106423500D01*
X136585670Y-106421200D01*
X136581896Y-106418104D01*
X136578800Y-106414330D01*
X136576500Y-106410028D01*
X136575083Y-106405357D01*
X136574000Y-106394359D01*
X136574000Y-106105641D01*
X136575083Y-106094643D01*
X136576500Y-106089972D01*
X136578800Y-106085670D01*
X136584031Y-106079295D01*
X136597644Y-106058920D01*
X136607020Y-106036281D01*
X136611800Y-106012247D01*
X136611799Y-105987743D01*
X136607017Y-105963709D01*
X136597639Y-105941071D01*
X136584031Y-105920705D01*
X136578800Y-105914330D01*
X136576500Y-105910028D01*
X136575083Y-105905357D01*
X136574000Y-105894359D01*
X136574000Y-105605641D01*
X136575083Y-105594643D01*
X136576500Y-105589972D01*
X136578800Y-105585670D01*
X136584031Y-105579295D01*
X136597644Y-105558920D01*
X136607020Y-105536281D01*
X136611800Y-105512247D01*
X136611799Y-105487743D01*
X136607017Y-105463709D01*
X136597639Y-105441071D01*
X136584031Y-105420705D01*
X136578800Y-105414330D01*
X136576500Y-105410028D01*
X136575083Y-105405357D01*
X136574000Y-105394359D01*
X136574000Y-105105641D01*
X136575083Y-105094643D01*
X136576500Y-105089972D01*
X136578800Y-105085670D01*
X136584031Y-105079295D01*
X136597644Y-105058920D01*
X136607020Y-105036281D01*
X136611800Y-105012247D01*
X136611799Y-104987743D01*
X136607017Y-104963709D01*
X136597639Y-104941071D01*
X136584031Y-104920705D01*
X136578800Y-104914330D01*
X136576500Y-104910028D01*
X136575083Y-104905357D01*
X136574000Y-104894359D01*
X136574000Y-104605641D01*
X136575083Y-104594643D01*
X136576500Y-104589972D01*
X136578800Y-104585670D01*
X136584031Y-104579295D01*
X136597644Y-104558920D01*
X136607020Y-104536281D01*
X136611800Y-104512247D01*
X136611799Y-104487743D01*
X136607017Y-104463709D01*
X136597639Y-104441071D01*
X136584031Y-104420705D01*
X136578800Y-104414330D01*
X136576500Y-104410028D01*
X136575083Y-104405357D01*
X136574000Y-104394359D01*
X136574000Y-104105641D01*
X136575083Y-104094643D01*
X136576500Y-104089972D01*
X136578800Y-104085670D01*
X136584031Y-104079295D01*
X136597644Y-104058920D01*
X136607020Y-104036281D01*
X136611800Y-104012247D01*
X136611799Y-103987743D01*
X136607017Y-103963709D01*
X136597639Y-103941071D01*
X136584031Y-103920705D01*
X136578800Y-103914330D01*
X136576500Y-103910028D01*
X136575083Y-103905357D01*
X136574000Y-103894359D01*
X136574000Y-103605641D01*
X136575083Y-103594643D01*
X136576500Y-103589972D01*
X136578800Y-103585670D01*
X136581896Y-103581896D01*
X136585670Y-103578800D01*
X136589972Y-103576500D01*
X136594643Y-103575083D01*
X136605641Y-103574000D01*
X137449000Y-103574000D01*
X137473386Y-103571598D01*
X137496835Y-103564485D01*
X137518446Y-103552934D01*
X137537388Y-103537388D01*
X137552934Y-103518446D01*
X137564485Y-103496835D01*
X137571598Y-103473386D01*
X137574000Y-103449000D01*
X137574000Y-102605641D01*
X137575083Y-102594643D01*
X137576500Y-102589972D01*
X137578800Y-102585670D01*
X137581896Y-102581896D01*
X137585670Y-102578800D01*
X137589972Y-102576500D01*
X137594643Y-102575083D01*
X137605641Y-102574000D01*
X137894359Y-102574000D01*
X137905357Y-102575083D01*
X137905357Y-102575083D01*
G37*
G36*
X166794683Y-106052725D02*
X166825144Y-106061966D01*
X166853223Y-106076975D01*
X166877831Y-106097169D01*
X166898025Y-106121777D01*
X166913034Y-106149856D01*
X166922275Y-106180317D01*
X166926000Y-106218140D01*
X166926000Y-106781860D01*
X166922275Y-106819683D01*
X166913034Y-106850144D01*
X166898025Y-106878223D01*
X166877831Y-106902831D01*
X166853223Y-106923025D01*
X166825144Y-106938034D01*
X166794683Y-106947275D01*
X166756860Y-106951000D01*
X164093140Y-106951000D01*
X164055317Y-106947275D01*
X164024856Y-106938034D01*
X163996777Y-106923025D01*
X163972169Y-106902831D01*
X163951975Y-106878223D01*
X163936966Y-106850144D01*
X163927725Y-106819683D01*
X163924000Y-106781860D01*
X163924000Y-106218140D01*
X163927725Y-106180317D01*
X163936966Y-106149856D01*
X163951975Y-106121777D01*
X163972169Y-106097169D01*
X163996777Y-106076975D01*
X164024856Y-106061966D01*
X164055317Y-106052725D01*
X164093140Y-106049000D01*
X166756860Y-106049000D01*
X166794683Y-106052725D01*
X166794683Y-106052725D01*
G37*
G36*
X143781938Y-106141716D02*
X143802556Y-106147970D01*
X143821556Y-106158126D01*
X143838208Y-106171792D01*
X143851874Y-106188444D01*
X143862030Y-106207444D01*
X143868284Y-106228062D01*
X143871000Y-106255640D01*
X143871000Y-106714360D01*
X143868284Y-106741938D01*
X143862030Y-106762556D01*
X143851874Y-106781556D01*
X143838208Y-106798208D01*
X143821556Y-106811874D01*
X143802556Y-106822030D01*
X143781938Y-106828284D01*
X143754360Y-106831000D01*
X143245640Y-106831000D01*
X143218062Y-106828284D01*
X143197444Y-106822030D01*
X143178444Y-106811874D01*
X143161792Y-106798208D01*
X143148126Y-106781556D01*
X143137970Y-106762556D01*
X143131716Y-106741938D01*
X143129000Y-106714360D01*
X143129000Y-106255640D01*
X143131716Y-106228062D01*
X143137970Y-106207444D01*
X143148126Y-106188444D01*
X143161792Y-106171792D01*
X143178444Y-106158126D01*
X143197444Y-106147970D01*
X143218062Y-106141716D01*
X143245640Y-106139000D01*
X143754360Y-106139000D01*
X143781938Y-106141716D01*
X143781938Y-106141716D01*
G37*
G36*
X148781938Y-106141716D02*
X148802556Y-106147970D01*
X148821556Y-106158126D01*
X148838208Y-106171792D01*
X148851874Y-106188444D01*
X148862030Y-106207444D01*
X148868284Y-106228062D01*
X148871000Y-106255640D01*
X148871000Y-106714360D01*
X148868284Y-106741938D01*
X148862030Y-106762556D01*
X148851874Y-106781556D01*
X148838208Y-106798208D01*
X148821556Y-106811874D01*
X148802556Y-106822030D01*
X148781938Y-106828284D01*
X148754360Y-106831000D01*
X148245640Y-106831000D01*
X148218062Y-106828284D01*
X148197444Y-106822030D01*
X148178444Y-106811874D01*
X148161792Y-106798208D01*
X148148126Y-106781556D01*
X148137970Y-106762556D01*
X148131716Y-106741938D01*
X148129000Y-106714360D01*
X148129000Y-106255640D01*
X148131716Y-106228062D01*
X148137970Y-106207444D01*
X148148126Y-106188444D01*
X148161792Y-106171792D01*
X148178444Y-106158126D01*
X148197444Y-106147970D01*
X148218062Y-106141716D01*
X148245640Y-106139000D01*
X148754360Y-106139000D01*
X148781938Y-106141716D01*
X148781938Y-106141716D01*
G37*
G36*
X133694683Y-105302725D02*
X133725144Y-105311966D01*
X133753223Y-105326975D01*
X133777831Y-105347169D01*
X133798025Y-105371777D01*
X133813034Y-105399856D01*
X133822275Y-105430317D01*
X133826000Y-105468140D01*
X133826000Y-106031860D01*
X133822275Y-106069683D01*
X133813034Y-106100144D01*
X133798025Y-106128223D01*
X133777831Y-106152831D01*
X133753223Y-106173025D01*
X133725144Y-106188034D01*
X133694683Y-106197275D01*
X133656860Y-106201000D01*
X130993140Y-106201000D01*
X130955317Y-106197275D01*
X130924856Y-106188034D01*
X130896777Y-106173025D01*
X130872169Y-106152831D01*
X130851975Y-106128223D01*
X130836966Y-106100144D01*
X130827725Y-106069683D01*
X130824000Y-106031860D01*
X130824000Y-105468140D01*
X130827725Y-105430317D01*
X130836966Y-105399856D01*
X130851975Y-105371777D01*
X130872169Y-105347169D01*
X130896777Y-105326975D01*
X130924856Y-105311966D01*
X130955317Y-105302725D01*
X130993140Y-105299000D01*
X133656860Y-105299000D01*
X133694683Y-105302725D01*
X133694683Y-105302725D01*
G37*
G36*
X143781938Y-105171716D02*
X143802556Y-105177970D01*
X143821556Y-105188126D01*
X143838208Y-105201792D01*
X143851874Y-105218444D01*
X143862030Y-105237444D01*
X143868284Y-105258062D01*
X143871000Y-105285640D01*
X143871000Y-105744360D01*
X143868284Y-105771938D01*
X143862030Y-105792556D01*
X143851874Y-105811556D01*
X143838208Y-105828208D01*
X143821556Y-105841874D01*
X143802556Y-105852030D01*
X143781938Y-105858284D01*
X143754360Y-105861000D01*
X143245640Y-105861000D01*
X143218062Y-105858284D01*
X143197444Y-105852030D01*
X143178444Y-105841874D01*
X143161792Y-105828208D01*
X143148126Y-105811556D01*
X143137970Y-105792556D01*
X143131716Y-105771938D01*
X143129000Y-105744360D01*
X143129000Y-105285640D01*
X143131716Y-105258062D01*
X143137970Y-105237444D01*
X143148126Y-105218444D01*
X143161792Y-105201792D01*
X143178444Y-105188126D01*
X143197444Y-105177970D01*
X143218062Y-105171716D01*
X143245640Y-105169000D01*
X143754360Y-105169000D01*
X143781938Y-105171716D01*
X143781938Y-105171716D01*
G37*
G36*
X148781938Y-105171716D02*
X148802556Y-105177970D01*
X148821556Y-105188126D01*
X148838208Y-105201792D01*
X148851874Y-105218444D01*
X148862030Y-105237444D01*
X148868284Y-105258062D01*
X148871000Y-105285640D01*
X148871000Y-105744360D01*
X148868284Y-105771938D01*
X148862030Y-105792556D01*
X148851874Y-105811556D01*
X148838208Y-105828208D01*
X148821556Y-105841874D01*
X148802556Y-105852030D01*
X148781938Y-105858284D01*
X148754360Y-105861000D01*
X148245640Y-105861000D01*
X148218062Y-105858284D01*
X148197444Y-105852030D01*
X148178444Y-105841874D01*
X148161792Y-105828208D01*
X148148126Y-105811556D01*
X148137970Y-105792556D01*
X148131716Y-105771938D01*
X148129000Y-105744360D01*
X148129000Y-105285640D01*
X148131716Y-105258062D01*
X148137970Y-105237444D01*
X148148126Y-105218444D01*
X148161792Y-105201792D01*
X148178444Y-105188126D01*
X148197444Y-105177970D01*
X148218062Y-105171716D01*
X148245640Y-105169000D01*
X148754360Y-105169000D01*
X148781938Y-105171716D01*
X148781938Y-105171716D01*
G37*
G36*
X166794683Y-104552725D02*
X166825144Y-104561966D01*
X166853223Y-104576975D01*
X166877831Y-104597169D01*
X166898025Y-104621777D01*
X166913034Y-104649856D01*
X166922275Y-104680317D01*
X166926000Y-104718140D01*
X166926000Y-105281860D01*
X166922275Y-105319683D01*
X166913034Y-105350144D01*
X166898025Y-105378223D01*
X166877831Y-105402831D01*
X166853223Y-105423025D01*
X166825144Y-105438034D01*
X166794683Y-105447275D01*
X166756860Y-105451000D01*
X164093140Y-105451000D01*
X164055317Y-105447275D01*
X164024856Y-105438034D01*
X163996777Y-105423025D01*
X163972169Y-105402831D01*
X163951975Y-105378223D01*
X163936966Y-105350144D01*
X163927725Y-105319683D01*
X163924000Y-105281860D01*
X163924000Y-104718140D01*
X163927725Y-104680317D01*
X163936966Y-104649856D01*
X163951975Y-104621777D01*
X163972169Y-104597169D01*
X163996777Y-104576975D01*
X164024856Y-104561966D01*
X164055317Y-104552725D01*
X164093140Y-104549000D01*
X166756860Y-104549000D01*
X166794683Y-104552725D01*
X166794683Y-104552725D01*
G37*
G36*
X133694683Y-103802725D02*
X133725144Y-103811966D01*
X133753223Y-103826975D01*
X133777831Y-103847169D01*
X133798025Y-103871777D01*
X133813034Y-103899856D01*
X133822275Y-103930317D01*
X133826000Y-103968140D01*
X133826000Y-104531860D01*
X133822275Y-104569683D01*
X133813034Y-104600144D01*
X133798025Y-104628223D01*
X133777831Y-104652831D01*
X133753223Y-104673025D01*
X133725144Y-104688034D01*
X133694683Y-104697275D01*
X133656860Y-104701000D01*
X130993140Y-104701000D01*
X130955317Y-104697275D01*
X130924856Y-104688034D01*
X130896777Y-104673025D01*
X130872169Y-104652831D01*
X130851975Y-104628223D01*
X130836966Y-104600144D01*
X130827725Y-104569683D01*
X130824000Y-104531860D01*
X130824000Y-103968140D01*
X130827725Y-103930317D01*
X130836966Y-103899856D01*
X130851975Y-103871777D01*
X130872169Y-103847169D01*
X130896777Y-103826975D01*
X130924856Y-103811966D01*
X130955317Y-103802725D01*
X130993140Y-103799000D01*
X133656860Y-103799000D01*
X133694683Y-103802725D01*
X133694683Y-103802725D01*
G37*
G36*
X144651000Y-104651000D02*
X143349000Y-104651000D01*
X143349000Y-103649000D01*
X144651000Y-103649000D01*
X144651000Y-104651000D01*
X144651000Y-104651000D01*
G37*
G36*
X146856000Y-104401000D02*
X145774000Y-104401000D01*
X145774000Y-100599000D01*
X146856000Y-100599000D01*
X146856000Y-104401000D01*
X146856000Y-104401000D01*
G37*
G36*
X149226000Y-104401000D02*
X148144000Y-104401000D01*
X148144000Y-100599000D01*
X149226000Y-100599000D01*
X149226000Y-104401000D01*
X149226000Y-104401000D01*
G37*
G36*
X160271938Y-103631716D02*
X160292556Y-103637970D01*
X160311556Y-103648126D01*
X160328208Y-103661792D01*
X160341874Y-103678444D01*
X160352030Y-103697444D01*
X160358284Y-103718062D01*
X160361000Y-103745640D01*
X160361000Y-104254360D01*
X160358284Y-104281938D01*
X160352030Y-104302556D01*
X160341874Y-104321556D01*
X160328208Y-104338208D01*
X160311556Y-104351874D01*
X160292556Y-104362030D01*
X160271938Y-104368284D01*
X160244360Y-104371000D01*
X159785640Y-104371000D01*
X159758062Y-104368284D01*
X159737444Y-104362030D01*
X159718444Y-104351874D01*
X159701792Y-104338208D01*
X159688126Y-104321556D01*
X159677970Y-104302556D01*
X159671716Y-104281938D01*
X159669000Y-104254360D01*
X159669000Y-103745640D01*
X159671716Y-103718062D01*
X159677970Y-103697444D01*
X159688126Y-103678444D01*
X159701792Y-103661792D01*
X159718444Y-103648126D01*
X159737444Y-103637970D01*
X159758062Y-103631716D01*
X159785640Y-103629000D01*
X160244360Y-103629000D01*
X160271938Y-103631716D01*
X160271938Y-103631716D01*
G37*
G36*
X156241938Y-103631716D02*
X156262556Y-103637970D01*
X156281556Y-103648126D01*
X156298208Y-103661792D01*
X156311874Y-103678444D01*
X156322030Y-103697444D01*
X156328284Y-103718062D01*
X156331000Y-103745640D01*
X156331000Y-104254360D01*
X156328284Y-104281938D01*
X156322030Y-104302556D01*
X156311874Y-104321556D01*
X156298208Y-104338208D01*
X156281556Y-104351874D01*
X156262556Y-104362030D01*
X156241938Y-104368284D01*
X156214360Y-104371000D01*
X155755640Y-104371000D01*
X155728062Y-104368284D01*
X155707444Y-104362030D01*
X155688444Y-104351874D01*
X155671792Y-104338208D01*
X155658126Y-104321556D01*
X155647970Y-104302556D01*
X155641716Y-104281938D01*
X155639000Y-104254360D01*
X155639000Y-103745640D01*
X155641716Y-103718062D01*
X155647970Y-103697444D01*
X155658126Y-103678444D01*
X155671792Y-103661792D01*
X155688444Y-103648126D01*
X155707444Y-103637970D01*
X155728062Y-103631716D01*
X155755640Y-103629000D01*
X156214360Y-103629000D01*
X156241938Y-103631716D01*
X156241938Y-103631716D01*
G37*
G36*
X155271938Y-103631716D02*
X155292556Y-103637970D01*
X155311556Y-103648126D01*
X155328208Y-103661792D01*
X155341874Y-103678444D01*
X155352030Y-103697444D01*
X155358284Y-103718062D01*
X155361000Y-103745640D01*
X155361000Y-104254360D01*
X155358284Y-104281938D01*
X155352030Y-104302556D01*
X155341874Y-104321556D01*
X155328208Y-104338208D01*
X155311556Y-104351874D01*
X155292556Y-104362030D01*
X155271938Y-104368284D01*
X155244360Y-104371000D01*
X154785640Y-104371000D01*
X154758062Y-104368284D01*
X154737444Y-104362030D01*
X154718444Y-104351874D01*
X154701792Y-104338208D01*
X154688126Y-104321556D01*
X154677970Y-104302556D01*
X154671716Y-104281938D01*
X154669000Y-104254360D01*
X154669000Y-103745640D01*
X154671716Y-103718062D01*
X154677970Y-103697444D01*
X154688126Y-103678444D01*
X154701792Y-103661792D01*
X154718444Y-103648126D01*
X154737444Y-103637970D01*
X154758062Y-103631716D01*
X154785640Y-103629000D01*
X155244360Y-103629000D01*
X155271938Y-103631716D01*
X155271938Y-103631716D01*
G37*
G36*
X161241938Y-103631716D02*
X161262556Y-103637970D01*
X161281556Y-103648126D01*
X161298208Y-103661792D01*
X161311874Y-103678444D01*
X161322030Y-103697444D01*
X161328284Y-103718062D01*
X161331000Y-103745640D01*
X161331000Y-104254360D01*
X161328284Y-104281938D01*
X161322030Y-104302556D01*
X161311874Y-104321556D01*
X161298208Y-104338208D01*
X161281556Y-104351874D01*
X161262556Y-104362030D01*
X161241938Y-104368284D01*
X161214360Y-104371000D01*
X160755640Y-104371000D01*
X160728062Y-104368284D01*
X160707444Y-104362030D01*
X160688444Y-104351874D01*
X160671792Y-104338208D01*
X160658126Y-104321556D01*
X160647970Y-104302556D01*
X160641716Y-104281938D01*
X160639000Y-104254360D01*
X160639000Y-103745640D01*
X160641716Y-103718062D01*
X160647970Y-103697444D01*
X160658126Y-103678444D01*
X160671792Y-103661792D01*
X160688444Y-103648126D01*
X160707444Y-103637970D01*
X160728062Y-103631716D01*
X160755640Y-103629000D01*
X161214360Y-103629000D01*
X161241938Y-103631716D01*
X161241938Y-103631716D01*
G37*
G36*
X158271938Y-103631716D02*
X158292556Y-103637970D01*
X158311556Y-103648126D01*
X158328208Y-103661792D01*
X158341874Y-103678444D01*
X158352030Y-103697444D01*
X158358284Y-103718062D01*
X158361000Y-103745640D01*
X158361000Y-104254360D01*
X158358284Y-104281938D01*
X158352030Y-104302556D01*
X158341874Y-104321556D01*
X158328208Y-104338208D01*
X158311556Y-104351874D01*
X158292556Y-104362030D01*
X158271938Y-104368284D01*
X158244360Y-104371000D01*
X157785640Y-104371000D01*
X157758062Y-104368284D01*
X157737444Y-104362030D01*
X157718444Y-104351874D01*
X157701792Y-104338208D01*
X157688126Y-104321556D01*
X157677970Y-104302556D01*
X157671716Y-104281938D01*
X157669000Y-104254360D01*
X157669000Y-103745640D01*
X157671716Y-103718062D01*
X157677970Y-103697444D01*
X157688126Y-103678444D01*
X157701792Y-103661792D01*
X157718444Y-103648126D01*
X157737444Y-103637970D01*
X157758062Y-103631716D01*
X157785640Y-103629000D01*
X158244360Y-103629000D01*
X158271938Y-103631716D01*
X158271938Y-103631716D01*
G37*
G36*
X159241938Y-103631716D02*
X159262556Y-103637970D01*
X159281556Y-103648126D01*
X159298208Y-103661792D01*
X159311874Y-103678444D01*
X159322030Y-103697444D01*
X159328284Y-103718062D01*
X159331000Y-103745640D01*
X159331000Y-104254360D01*
X159328284Y-104281938D01*
X159322030Y-104302556D01*
X159311874Y-104321556D01*
X159298208Y-104338208D01*
X159281556Y-104351874D01*
X159262556Y-104362030D01*
X159241938Y-104368284D01*
X159214360Y-104371000D01*
X158755640Y-104371000D01*
X158728062Y-104368284D01*
X158707444Y-104362030D01*
X158688444Y-104351874D01*
X158671792Y-104338208D01*
X158658126Y-104321556D01*
X158647970Y-104302556D01*
X158641716Y-104281938D01*
X158639000Y-104254360D01*
X158639000Y-103745640D01*
X158641716Y-103718062D01*
X158647970Y-103697444D01*
X158658126Y-103678444D01*
X158671792Y-103661792D01*
X158688444Y-103648126D01*
X158707444Y-103637970D01*
X158728062Y-103631716D01*
X158755640Y-103629000D01*
X159214360Y-103629000D01*
X159241938Y-103631716D01*
X159241938Y-103631716D01*
G37*
G36*
X166794683Y-103052725D02*
X166825144Y-103061966D01*
X166853223Y-103076975D01*
X166877831Y-103097169D01*
X166898025Y-103121777D01*
X166913034Y-103149856D01*
X166922275Y-103180317D01*
X166926000Y-103218140D01*
X166926000Y-103781860D01*
X166922275Y-103819683D01*
X166913034Y-103850144D01*
X166898025Y-103878223D01*
X166877831Y-103902831D01*
X166853223Y-103923025D01*
X166825144Y-103938034D01*
X166794683Y-103947275D01*
X166756860Y-103951000D01*
X164093140Y-103951000D01*
X164055317Y-103947275D01*
X164024856Y-103938034D01*
X163996777Y-103923025D01*
X163972169Y-103902831D01*
X163951975Y-103878223D01*
X163936966Y-103850144D01*
X163927725Y-103819683D01*
X163924000Y-103781860D01*
X163924000Y-103218140D01*
X163927725Y-103180317D01*
X163936966Y-103149856D01*
X163951975Y-103121777D01*
X163972169Y-103097169D01*
X163996777Y-103076975D01*
X164024856Y-103061966D01*
X164055317Y-103052725D01*
X164093140Y-103049000D01*
X166756860Y-103049000D01*
X166794683Y-103052725D01*
X166794683Y-103052725D01*
G37*
G36*
X159601000Y-102886000D02*
X158609000Y-102886000D01*
X158609000Y-99114000D01*
X159601000Y-99114000D01*
X159601000Y-102886000D01*
X159601000Y-102886000D01*
G37*
G36*
X155391000Y-102886000D02*
X154399000Y-102886000D01*
X154399000Y-99114000D01*
X155391000Y-99114000D01*
X155391000Y-102886000D01*
X155391000Y-102886000D01*
G37*
G36*
X129435918Y-100702934D02*
X129468424Y-100712795D01*
X129498383Y-100728808D01*
X129524641Y-100750359D01*
X129546192Y-100776617D01*
X129562205Y-100806576D01*
X129572066Y-100839082D01*
X129576000Y-100879029D01*
X129576000Y-102420971D01*
X129572066Y-102460918D01*
X129562205Y-102493424D01*
X129546192Y-102523383D01*
X129524641Y-102549641D01*
X129498383Y-102571192D01*
X129468424Y-102587205D01*
X129435918Y-102597066D01*
X129395971Y-102601000D01*
X125854029Y-102601000D01*
X125814082Y-102597066D01*
X125781576Y-102587205D01*
X125751617Y-102571192D01*
X125725359Y-102549641D01*
X125703808Y-102523383D01*
X125687795Y-102493424D01*
X125677934Y-102460918D01*
X125674000Y-102420971D01*
X125674000Y-100879029D01*
X125677934Y-100839082D01*
X125687795Y-100806576D01*
X125703808Y-100776617D01*
X125725359Y-100750359D01*
X125751617Y-100728808D01*
X125781576Y-100712795D01*
X125814082Y-100702934D01*
X125854029Y-100699000D01*
X129395971Y-100699000D01*
X129435918Y-100702934D01*
X129435918Y-100702934D01*
G37*
G36*
X162768604Y-101228347D02*
X162805145Y-101239432D01*
X162838820Y-101257431D01*
X162868341Y-101281659D01*
X162892569Y-101311180D01*
X162910568Y-101344855D01*
X162921653Y-101381396D01*
X162926000Y-101425538D01*
X162926000Y-102374462D01*
X162921653Y-102418604D01*
X162910568Y-102455145D01*
X162892569Y-102488820D01*
X162868341Y-102518341D01*
X162838820Y-102542569D01*
X162805145Y-102560568D01*
X162768604Y-102571653D01*
X162724462Y-102576000D01*
X161275538Y-102576000D01*
X161231396Y-102571653D01*
X161194855Y-102560568D01*
X161161180Y-102542569D01*
X161131659Y-102518341D01*
X161107431Y-102488820D01*
X161089432Y-102455145D01*
X161078347Y-102418604D01*
X161074000Y-102374462D01*
X161074000Y-101425538D01*
X161078347Y-101381396D01*
X161089432Y-101344855D01*
X161107431Y-101311180D01*
X161131659Y-101281659D01*
X161161180Y-101257431D01*
X161194855Y-101239432D01*
X161231396Y-101228347D01*
X161275538Y-101224000D01*
X162724462Y-101224000D01*
X162768604Y-101228347D01*
X162768604Y-101228347D01*
G37*
G36*
X157876000Y-102476000D02*
X156124000Y-102476000D01*
X156124000Y-99524000D01*
X157876000Y-99524000D01*
X157876000Y-102476000D01*
X157876000Y-102476000D01*
G37*
G36*
X142241938Y-101131716D02*
X142262556Y-101137970D01*
X142281556Y-101148126D01*
X142298208Y-101161792D01*
X142311874Y-101178444D01*
X142322030Y-101197444D01*
X142328284Y-101218062D01*
X142331000Y-101245640D01*
X142331000Y-101754360D01*
X142328284Y-101781938D01*
X142322030Y-101802556D01*
X142311874Y-101821556D01*
X142298208Y-101838208D01*
X142281556Y-101851874D01*
X142262556Y-101862030D01*
X142241938Y-101868284D01*
X142214360Y-101871000D01*
X141755640Y-101871000D01*
X141728062Y-101868284D01*
X141707444Y-101862030D01*
X141688444Y-101851874D01*
X141671792Y-101838208D01*
X141658126Y-101821556D01*
X141647970Y-101802556D01*
X141641716Y-101781938D01*
X141639000Y-101754360D01*
X141639000Y-101245640D01*
X141641716Y-101218062D01*
X141647970Y-101197444D01*
X141658126Y-101178444D01*
X141671792Y-101161792D01*
X141688444Y-101148126D01*
X141707444Y-101137970D01*
X141728062Y-101131716D01*
X141755640Y-101129000D01*
X142214360Y-101129000D01*
X142241938Y-101131716D01*
X142241938Y-101131716D01*
G37*
G36*
X141271938Y-101131716D02*
X141292556Y-101137970D01*
X141311556Y-101148126D01*
X141328208Y-101161792D01*
X141341874Y-101178444D01*
X141352030Y-101197444D01*
X141358284Y-101218062D01*
X141361000Y-101245640D01*
X141361000Y-101754360D01*
X141358284Y-101781938D01*
X141352030Y-101802556D01*
X141341874Y-101821556D01*
X141328208Y-101838208D01*
X141311556Y-101851874D01*
X141292556Y-101862030D01*
X141271938Y-101868284D01*
X141244360Y-101871000D01*
X140785640Y-101871000D01*
X140758062Y-101868284D01*
X140737444Y-101862030D01*
X140718444Y-101851874D01*
X140701792Y-101838208D01*
X140688126Y-101821556D01*
X140677970Y-101802556D01*
X140671716Y-101781938D01*
X140669000Y-101754360D01*
X140669000Y-101245640D01*
X140671716Y-101218062D01*
X140677970Y-101197444D01*
X140688126Y-101178444D01*
X140701792Y-101161792D01*
X140718444Y-101148126D01*
X140737444Y-101137970D01*
X140758062Y-101131716D01*
X140785640Y-101129000D01*
X141244360Y-101129000D01*
X141271938Y-101131716D01*
X141271938Y-101131716D01*
G37*
G36*
X171935918Y-99952934D02*
X171968424Y-99962795D01*
X171998383Y-99978808D01*
X172024641Y-100000359D01*
X172046192Y-100026617D01*
X172062205Y-100056576D01*
X172072066Y-100089082D01*
X172076000Y-100129029D01*
X172076000Y-101670971D01*
X172072066Y-101710918D01*
X172062205Y-101743424D01*
X172046192Y-101773383D01*
X172024641Y-101799641D01*
X171998383Y-101821192D01*
X171968424Y-101837205D01*
X171935918Y-101847066D01*
X171895971Y-101851000D01*
X168354029Y-101851000D01*
X168314082Y-101847066D01*
X168281576Y-101837205D01*
X168251617Y-101821192D01*
X168225359Y-101799641D01*
X168203808Y-101773383D01*
X168187795Y-101743424D01*
X168177934Y-101710918D01*
X168174000Y-101670971D01*
X168174000Y-100129029D01*
X168177934Y-100089082D01*
X168187795Y-100056576D01*
X168203808Y-100026617D01*
X168225359Y-100000359D01*
X168251617Y-99978808D01*
X168281576Y-99962795D01*
X168314082Y-99952934D01*
X168354029Y-99949000D01*
X171895971Y-99949000D01*
X171935918Y-99952934D01*
X171935918Y-99952934D01*
G37*
G36*
X144651000Y-101351000D02*
X143349000Y-101351000D01*
X143349000Y-100349000D01*
X144651000Y-100349000D01*
X144651000Y-101351000D01*
X144651000Y-101351000D01*
G37*
G36*
X164281938Y-100641716D02*
X164302556Y-100647970D01*
X164321556Y-100658126D01*
X164338208Y-100671792D01*
X164351874Y-100688444D01*
X164362030Y-100707444D01*
X164368284Y-100728062D01*
X164371000Y-100755640D01*
X164371000Y-101214360D01*
X164368284Y-101241938D01*
X164362030Y-101262556D01*
X164351874Y-101281556D01*
X164338208Y-101298208D01*
X164321556Y-101311874D01*
X164302556Y-101322030D01*
X164281938Y-101328284D01*
X164254360Y-101331000D01*
X163745640Y-101331000D01*
X163718062Y-101328284D01*
X163697444Y-101322030D01*
X163678444Y-101311874D01*
X163661792Y-101298208D01*
X163648126Y-101281556D01*
X163637970Y-101262556D01*
X163631716Y-101241938D01*
X163629000Y-101214360D01*
X163629000Y-100755640D01*
X163631716Y-100728062D01*
X163637970Y-100707444D01*
X163648126Y-100688444D01*
X163661792Y-100671792D01*
X163678444Y-100658126D01*
X163697444Y-100647970D01*
X163718062Y-100641716D01*
X163745640Y-100639000D01*
X164254360Y-100639000D01*
X164281938Y-100641716D01*
X164281938Y-100641716D01*
G37*
G36*
X136781938Y-100141716D02*
X136802556Y-100147970D01*
X136821556Y-100158126D01*
X136838208Y-100171792D01*
X136851874Y-100188444D01*
X136862030Y-100207444D01*
X136868284Y-100228062D01*
X136871000Y-100255640D01*
X136871000Y-100714360D01*
X136868284Y-100741938D01*
X136862030Y-100762556D01*
X136851874Y-100781556D01*
X136838208Y-100798208D01*
X136821556Y-100811874D01*
X136802556Y-100822030D01*
X136781938Y-100828284D01*
X136754360Y-100831000D01*
X136245640Y-100831000D01*
X136218062Y-100828284D01*
X136197444Y-100822030D01*
X136178444Y-100811874D01*
X136161792Y-100798208D01*
X136148126Y-100781556D01*
X136137970Y-100762556D01*
X136131716Y-100741938D01*
X136129000Y-100714360D01*
X136129000Y-100255640D01*
X136131716Y-100228062D01*
X136137970Y-100207444D01*
X136148126Y-100188444D01*
X136161792Y-100171792D01*
X136178444Y-100158126D01*
X136197444Y-100147970D01*
X136218062Y-100141716D01*
X136245640Y-100139000D01*
X136754360Y-100139000D01*
X136781938Y-100141716D01*
X136781938Y-100141716D01*
G37*
G36*
X140281938Y-100141716D02*
X140302556Y-100147970D01*
X140321556Y-100158126D01*
X140338208Y-100171792D01*
X140351874Y-100188444D01*
X140362030Y-100207444D01*
X140368284Y-100228062D01*
X140371000Y-100255640D01*
X140371000Y-100714360D01*
X140368284Y-100741938D01*
X140362030Y-100762556D01*
X140351874Y-100781556D01*
X140338208Y-100798208D01*
X140321556Y-100811874D01*
X140302556Y-100822030D01*
X140281938Y-100828284D01*
X140254360Y-100831000D01*
X139745640Y-100831000D01*
X139718062Y-100828284D01*
X139697444Y-100822030D01*
X139678444Y-100811874D01*
X139661792Y-100798208D01*
X139648126Y-100781556D01*
X139637970Y-100762556D01*
X139631716Y-100741938D01*
X139629000Y-100714360D01*
X139629000Y-100255640D01*
X139631716Y-100228062D01*
X139637970Y-100207444D01*
X139648126Y-100188444D01*
X139661792Y-100171792D01*
X139678444Y-100158126D01*
X139697444Y-100147970D01*
X139718062Y-100141716D01*
X139745640Y-100139000D01*
X140254360Y-100139000D01*
X140281938Y-100141716D01*
X140281938Y-100141716D01*
G37*
G36*
X138781938Y-100141716D02*
X138802556Y-100147970D01*
X138821556Y-100158126D01*
X138838208Y-100171792D01*
X138851874Y-100188444D01*
X138862030Y-100207444D01*
X138868284Y-100228062D01*
X138871000Y-100255640D01*
X138871000Y-100714360D01*
X138868284Y-100741938D01*
X138862030Y-100762556D01*
X138851874Y-100781556D01*
X138838208Y-100798208D01*
X138821556Y-100811874D01*
X138802556Y-100822030D01*
X138781938Y-100828284D01*
X138754360Y-100831000D01*
X138245640Y-100831000D01*
X138218062Y-100828284D01*
X138197444Y-100822030D01*
X138178444Y-100811874D01*
X138161792Y-100798208D01*
X138148126Y-100781556D01*
X138137970Y-100762556D01*
X138131716Y-100741938D01*
X138129000Y-100714360D01*
X138129000Y-100255640D01*
X138131716Y-100228062D01*
X138137970Y-100207444D01*
X138148126Y-100188444D01*
X138161792Y-100171792D01*
X138178444Y-100158126D01*
X138197444Y-100147970D01*
X138218062Y-100141716D01*
X138245640Y-100139000D01*
X138754360Y-100139000D01*
X138781938Y-100141716D01*
X138781938Y-100141716D01*
G37*
G36*
X137781938Y-100141716D02*
X137802556Y-100147970D01*
X137821556Y-100158126D01*
X137838208Y-100171792D01*
X137851874Y-100188444D01*
X137862030Y-100207444D01*
X137868284Y-100228062D01*
X137871000Y-100255640D01*
X137871000Y-100714360D01*
X137868284Y-100741938D01*
X137862030Y-100762556D01*
X137851874Y-100781556D01*
X137838208Y-100798208D01*
X137821556Y-100811874D01*
X137802556Y-100822030D01*
X137781938Y-100828284D01*
X137754360Y-100831000D01*
X137245640Y-100831000D01*
X137218062Y-100828284D01*
X137197444Y-100822030D01*
X137178444Y-100811874D01*
X137161792Y-100798208D01*
X137148126Y-100781556D01*
X137137970Y-100762556D01*
X137131716Y-100741938D01*
X137129000Y-100714360D01*
X137129000Y-100255640D01*
X137131716Y-100228062D01*
X137137970Y-100207444D01*
X137148126Y-100188444D01*
X137161792Y-100171792D01*
X137178444Y-100158126D01*
X137197444Y-100147970D01*
X137218062Y-100141716D01*
X137245640Y-100139000D01*
X137754360Y-100139000D01*
X137781938Y-100141716D01*
X137781938Y-100141716D01*
G37*
G36*
X164281938Y-99671716D02*
X164302556Y-99677970D01*
X164321556Y-99688126D01*
X164338208Y-99701792D01*
X164351874Y-99718444D01*
X164362030Y-99737444D01*
X164368284Y-99758062D01*
X164371000Y-99785640D01*
X164371000Y-100244360D01*
X164368284Y-100271938D01*
X164362030Y-100292556D01*
X164351874Y-100311556D01*
X164338208Y-100328208D01*
X164321556Y-100341874D01*
X164302556Y-100352030D01*
X164281938Y-100358284D01*
X164254360Y-100361000D01*
X163745640Y-100361000D01*
X163718062Y-100358284D01*
X163697444Y-100352030D01*
X163678444Y-100341874D01*
X163661792Y-100328208D01*
X163648126Y-100311556D01*
X163637970Y-100292556D01*
X163631716Y-100271938D01*
X163629000Y-100244360D01*
X163629000Y-99785640D01*
X163631716Y-99758062D01*
X163637970Y-99737444D01*
X163648126Y-99718444D01*
X163661792Y-99701792D01*
X163678444Y-99688126D01*
X163697444Y-99677970D01*
X163718062Y-99671716D01*
X163745640Y-99669000D01*
X164254360Y-99669000D01*
X164281938Y-99671716D01*
X164281938Y-99671716D01*
G37*
G36*
X145418604Y-98078347D02*
X145455145Y-98089432D01*
X145488820Y-98107431D01*
X145518341Y-98131659D01*
X145542569Y-98161180D01*
X145560568Y-98194855D01*
X145571653Y-98231396D01*
X145576000Y-98275538D01*
X145576000Y-99724462D01*
X145571653Y-99768604D01*
X145560568Y-99805145D01*
X145542569Y-99838820D01*
X145518341Y-99868341D01*
X145488820Y-99892569D01*
X145455145Y-99910568D01*
X145418604Y-99921653D01*
X145374462Y-99926000D01*
X144425538Y-99926000D01*
X144381396Y-99921653D01*
X144344855Y-99910568D01*
X144311180Y-99892569D01*
X144281659Y-99868341D01*
X144257431Y-99838820D01*
X144239432Y-99805145D01*
X144228347Y-99768604D01*
X144224000Y-99724462D01*
X144224000Y-98275538D01*
X144228347Y-98231396D01*
X144239432Y-98194855D01*
X144257431Y-98161180D01*
X144281659Y-98131659D01*
X144311180Y-98107431D01*
X144344855Y-98089432D01*
X144381396Y-98078347D01*
X144425538Y-98074000D01*
X145374462Y-98074000D01*
X145418604Y-98078347D01*
X145418604Y-98078347D01*
G37*
G36*
X142618604Y-98078347D02*
X142655145Y-98089432D01*
X142688820Y-98107431D01*
X142718341Y-98131659D01*
X142742569Y-98161180D01*
X142760568Y-98194855D01*
X142771653Y-98231396D01*
X142776000Y-98275538D01*
X142776000Y-99724462D01*
X142771653Y-99768604D01*
X142760568Y-99805145D01*
X142742569Y-99838820D01*
X142718341Y-99868341D01*
X142688820Y-99892569D01*
X142655145Y-99910568D01*
X142618604Y-99921653D01*
X142574462Y-99926000D01*
X141625538Y-99926000D01*
X141581396Y-99921653D01*
X141544855Y-99910568D01*
X141511180Y-99892569D01*
X141481659Y-99868341D01*
X141457431Y-99838820D01*
X141439432Y-99805145D01*
X141428347Y-99768604D01*
X141424000Y-99724462D01*
X141424000Y-98275538D01*
X141428347Y-98231396D01*
X141439432Y-98194855D01*
X141457431Y-98161180D01*
X141481659Y-98131659D01*
X141511180Y-98107431D01*
X141544855Y-98089432D01*
X141581396Y-98078347D01*
X141625538Y-98074000D01*
X142574462Y-98074000D01*
X142618604Y-98078347D01*
X142618604Y-98078347D01*
G37*
G36*
X138781938Y-99171716D02*
X138802556Y-99177970D01*
X138821556Y-99188126D01*
X138838208Y-99201792D01*
X138851874Y-99218444D01*
X138862030Y-99237444D01*
X138868284Y-99258062D01*
X138871000Y-99285640D01*
X138871000Y-99744360D01*
X138868284Y-99771938D01*
X138862030Y-99792556D01*
X138851874Y-99811556D01*
X138838208Y-99828208D01*
X138821556Y-99841874D01*
X138802556Y-99852030D01*
X138781938Y-99858284D01*
X138754360Y-99861000D01*
X138245640Y-99861000D01*
X138218062Y-99858284D01*
X138197444Y-99852030D01*
X138178444Y-99841874D01*
X138161792Y-99828208D01*
X138148126Y-99811556D01*
X138137970Y-99792556D01*
X138131716Y-99771938D01*
X138129000Y-99744360D01*
X138129000Y-99285640D01*
X138131716Y-99258062D01*
X138137970Y-99237444D01*
X138148126Y-99218444D01*
X138161792Y-99201792D01*
X138178444Y-99188126D01*
X138197444Y-99177970D01*
X138218062Y-99171716D01*
X138245640Y-99169000D01*
X138754360Y-99169000D01*
X138781938Y-99171716D01*
X138781938Y-99171716D01*
G37*
G36*
X137781938Y-99171716D02*
X137802556Y-99177970D01*
X137821556Y-99188126D01*
X137838208Y-99201792D01*
X137851874Y-99218444D01*
X137862030Y-99237444D01*
X137868284Y-99258062D01*
X137871000Y-99285640D01*
X137871000Y-99744360D01*
X137868284Y-99771938D01*
X137862030Y-99792556D01*
X137851874Y-99811556D01*
X137838208Y-99828208D01*
X137821556Y-99841874D01*
X137802556Y-99852030D01*
X137781938Y-99858284D01*
X137754360Y-99861000D01*
X137245640Y-99861000D01*
X137218062Y-99858284D01*
X137197444Y-99852030D01*
X137178444Y-99841874D01*
X137161792Y-99828208D01*
X137148126Y-99811556D01*
X137137970Y-99792556D01*
X137131716Y-99771938D01*
X137129000Y-99744360D01*
X137129000Y-99285640D01*
X137131716Y-99258062D01*
X137137970Y-99237444D01*
X137148126Y-99218444D01*
X137161792Y-99201792D01*
X137178444Y-99188126D01*
X137197444Y-99177970D01*
X137218062Y-99171716D01*
X137245640Y-99169000D01*
X137754360Y-99169000D01*
X137781938Y-99171716D01*
X137781938Y-99171716D01*
G37*
G36*
X140281938Y-99171716D02*
X140302556Y-99177970D01*
X140321556Y-99188126D01*
X140338208Y-99201792D01*
X140351874Y-99218444D01*
X140362030Y-99237444D01*
X140368284Y-99258062D01*
X140371000Y-99285640D01*
X140371000Y-99744360D01*
X140368284Y-99771938D01*
X140362030Y-99792556D01*
X140351874Y-99811556D01*
X140338208Y-99828208D01*
X140321556Y-99841874D01*
X140302556Y-99852030D01*
X140281938Y-99858284D01*
X140254360Y-99861000D01*
X139745640Y-99861000D01*
X139718062Y-99858284D01*
X139697444Y-99852030D01*
X139678444Y-99841874D01*
X139661792Y-99828208D01*
X139648126Y-99811556D01*
X139637970Y-99792556D01*
X139631716Y-99771938D01*
X139629000Y-99744360D01*
X139629000Y-99285640D01*
X139631716Y-99258062D01*
X139637970Y-99237444D01*
X139648126Y-99218444D01*
X139661792Y-99201792D01*
X139678444Y-99188126D01*
X139697444Y-99177970D01*
X139718062Y-99171716D01*
X139745640Y-99169000D01*
X140254360Y-99169000D01*
X140281938Y-99171716D01*
X140281938Y-99171716D01*
G37*
G36*
X136781938Y-99171716D02*
X136802556Y-99177970D01*
X136821556Y-99188126D01*
X136838208Y-99201792D01*
X136851874Y-99218444D01*
X136862030Y-99237444D01*
X136868284Y-99258062D01*
X136871000Y-99285640D01*
X136871000Y-99744360D01*
X136868284Y-99771938D01*
X136862030Y-99792556D01*
X136851874Y-99811556D01*
X136838208Y-99828208D01*
X136821556Y-99841874D01*
X136802556Y-99852030D01*
X136781938Y-99858284D01*
X136754360Y-99861000D01*
X136245640Y-99861000D01*
X136218062Y-99858284D01*
X136197444Y-99852030D01*
X136178444Y-99841874D01*
X136161792Y-99828208D01*
X136148126Y-99811556D01*
X136137970Y-99792556D01*
X136131716Y-99771938D01*
X136129000Y-99744360D01*
X136129000Y-99285640D01*
X136131716Y-99258062D01*
X136137970Y-99237444D01*
X136148126Y-99218444D01*
X136161792Y-99201792D01*
X136178444Y-99188126D01*
X136197444Y-99177970D01*
X136218062Y-99171716D01*
X136245640Y-99169000D01*
X136754360Y-99169000D01*
X136781938Y-99171716D01*
X136781938Y-99171716D01*
G37*
G36*
X165781938Y-99141716D02*
X165802556Y-99147970D01*
X165821556Y-99158126D01*
X165838208Y-99171792D01*
X165851874Y-99188444D01*
X165862030Y-99207444D01*
X165868284Y-99228062D01*
X165871000Y-99255640D01*
X165871000Y-99714360D01*
X165868284Y-99741938D01*
X165862030Y-99762556D01*
X165851874Y-99781556D01*
X165838208Y-99798208D01*
X165821556Y-99811874D01*
X165802556Y-99822030D01*
X165781938Y-99828284D01*
X165754360Y-99831000D01*
X165245640Y-99831000D01*
X165218062Y-99828284D01*
X165197444Y-99822030D01*
X165178444Y-99811874D01*
X165161792Y-99798208D01*
X165148126Y-99781556D01*
X165137970Y-99762556D01*
X165131716Y-99741938D01*
X165129000Y-99714360D01*
X165129000Y-99255640D01*
X165131716Y-99228062D01*
X165137970Y-99207444D01*
X165148126Y-99188444D01*
X165161792Y-99171792D01*
X165178444Y-99158126D01*
X165197444Y-99147970D01*
X165218062Y-99141716D01*
X165245640Y-99139000D01*
X165754360Y-99139000D01*
X165781938Y-99141716D01*
X165781938Y-99141716D01*
G37*
G36*
X162768604Y-98428347D02*
X162805145Y-98439432D01*
X162838820Y-98457431D01*
X162868341Y-98481659D01*
X162892569Y-98511180D01*
X162910568Y-98544855D01*
X162921653Y-98581396D01*
X162926000Y-98625538D01*
X162926000Y-99574462D01*
X162921653Y-99618604D01*
X162910568Y-99655145D01*
X162892569Y-99688820D01*
X162868341Y-99718341D01*
X162838820Y-99742569D01*
X162805145Y-99760568D01*
X162768604Y-99771653D01*
X162724462Y-99776000D01*
X161275538Y-99776000D01*
X161231396Y-99771653D01*
X161194855Y-99760568D01*
X161161180Y-99742569D01*
X161131659Y-99718341D01*
X161107431Y-99688820D01*
X161089432Y-99655145D01*
X161078347Y-99618604D01*
X161074000Y-99574462D01*
X161074000Y-98625538D01*
X161078347Y-98581396D01*
X161089432Y-98544855D01*
X161107431Y-98511180D01*
X161131659Y-98481659D01*
X161161180Y-98457431D01*
X161194855Y-98439432D01*
X161231396Y-98428347D01*
X161275538Y-98424000D01*
X162724462Y-98424000D01*
X162768604Y-98428347D01*
X162768604Y-98428347D01*
G37*
G36*
X128379591Y-98478085D02*
X128413569Y-98488393D01*
X128444887Y-98505133D01*
X128472339Y-98527661D01*
X128494867Y-98555113D01*
X128511607Y-98586431D01*
X128521915Y-98620409D01*
X128526000Y-98661890D01*
X128526000Y-99338110D01*
X128521915Y-99379591D01*
X128511607Y-99413569D01*
X128494867Y-99444887D01*
X128472339Y-99472339D01*
X128444887Y-99494867D01*
X128413569Y-99511607D01*
X128379591Y-99521915D01*
X128338110Y-99526000D01*
X127736890Y-99526000D01*
X127695409Y-99521915D01*
X127661431Y-99511607D01*
X127630113Y-99494867D01*
X127602661Y-99472339D01*
X127580133Y-99444887D01*
X127563393Y-99413569D01*
X127553085Y-99379591D01*
X127549000Y-99338110D01*
X127549000Y-98661890D01*
X127553085Y-98620409D01*
X127563393Y-98586431D01*
X127580133Y-98555113D01*
X127602661Y-98527661D01*
X127630113Y-98505133D01*
X127661431Y-98488393D01*
X127695409Y-98478085D01*
X127736890Y-98474000D01*
X128338110Y-98474000D01*
X128379591Y-98478085D01*
X128379591Y-98478085D01*
G37*
G36*
X126804591Y-98478085D02*
X126838569Y-98488393D01*
X126869887Y-98505133D01*
X126897339Y-98527661D01*
X126919867Y-98555113D01*
X126936607Y-98586431D01*
X126946915Y-98620409D01*
X126951000Y-98661890D01*
X126951000Y-99338110D01*
X126946915Y-99379591D01*
X126936607Y-99413569D01*
X126919867Y-99444887D01*
X126897339Y-99472339D01*
X126869887Y-99494867D01*
X126838569Y-99511607D01*
X126804591Y-99521915D01*
X126763110Y-99526000D01*
X126161890Y-99526000D01*
X126120409Y-99521915D01*
X126086431Y-99511607D01*
X126055113Y-99494867D01*
X126027661Y-99472339D01*
X126005133Y-99444887D01*
X125988393Y-99413569D01*
X125978085Y-99379591D01*
X125974000Y-99338110D01*
X125974000Y-98661890D01*
X125978085Y-98620409D01*
X125988393Y-98586431D01*
X126005133Y-98555113D01*
X126027661Y-98527661D01*
X126055113Y-98505133D01*
X126086431Y-98488393D01*
X126120409Y-98478085D01*
X126161890Y-98474000D01*
X126763110Y-98474000D01*
X126804591Y-98478085D01*
X126804591Y-98478085D01*
G37*
G36*
X129771938Y-98631716D02*
X129792556Y-98637970D01*
X129811556Y-98648126D01*
X129828208Y-98661792D01*
X129841874Y-98678444D01*
X129852030Y-98697444D01*
X129858284Y-98718062D01*
X129861000Y-98745640D01*
X129861000Y-99254360D01*
X129858284Y-99281938D01*
X129852030Y-99302556D01*
X129841874Y-99321556D01*
X129828208Y-99338208D01*
X129811556Y-99351874D01*
X129792556Y-99362030D01*
X129771938Y-99368284D01*
X129744360Y-99371000D01*
X129285640Y-99371000D01*
X129258062Y-99368284D01*
X129237444Y-99362030D01*
X129218444Y-99351874D01*
X129201792Y-99338208D01*
X129188126Y-99321556D01*
X129177970Y-99302556D01*
X129171716Y-99281938D01*
X129169000Y-99254360D01*
X129169000Y-98745640D01*
X129171716Y-98718062D01*
X129177970Y-98697444D01*
X129188126Y-98678444D01*
X129201792Y-98661792D01*
X129218444Y-98648126D01*
X129237444Y-98637970D01*
X129258062Y-98631716D01*
X129285640Y-98629000D01*
X129744360Y-98629000D01*
X129771938Y-98631716D01*
X129771938Y-98631716D01*
G37*
G36*
X130741938Y-98631716D02*
X130762556Y-98637970D01*
X130781556Y-98648126D01*
X130798208Y-98661792D01*
X130811874Y-98678444D01*
X130822030Y-98697444D01*
X130828284Y-98718062D01*
X130831000Y-98745640D01*
X130831000Y-99254360D01*
X130828284Y-99281938D01*
X130822030Y-99302556D01*
X130811874Y-99321556D01*
X130798208Y-99338208D01*
X130781556Y-99351874D01*
X130762556Y-99362030D01*
X130741938Y-99368284D01*
X130714360Y-99371000D01*
X130255640Y-99371000D01*
X130228062Y-99368284D01*
X130207444Y-99362030D01*
X130188444Y-99351874D01*
X130171792Y-99338208D01*
X130158126Y-99321556D01*
X130147970Y-99302556D01*
X130141716Y-99281938D01*
X130139000Y-99254360D01*
X130139000Y-98745640D01*
X130141716Y-98718062D01*
X130147970Y-98697444D01*
X130158126Y-98678444D01*
X130171792Y-98661792D01*
X130188444Y-98648126D01*
X130207444Y-98637970D01*
X130228062Y-98631716D01*
X130255640Y-98629000D01*
X130714360Y-98629000D01*
X130741938Y-98631716D01*
X130741938Y-98631716D01*
G37*
G36*
X170092091Y-97978085D02*
X170126069Y-97988393D01*
X170157387Y-98005133D01*
X170184839Y-98027661D01*
X170207367Y-98055113D01*
X170224107Y-98086431D01*
X170234415Y-98120409D01*
X170238500Y-98161890D01*
X170238500Y-98838110D01*
X170234415Y-98879591D01*
X170224107Y-98913569D01*
X170207367Y-98944887D01*
X170184839Y-98972339D01*
X170157387Y-98994867D01*
X170126069Y-99011607D01*
X170092091Y-99021915D01*
X170050610Y-99026000D01*
X169449390Y-99026000D01*
X169407909Y-99021915D01*
X169373931Y-99011607D01*
X169342613Y-98994867D01*
X169315161Y-98972339D01*
X169292633Y-98944887D01*
X169275893Y-98913569D01*
X169265585Y-98879591D01*
X169261500Y-98838110D01*
X169261500Y-98161890D01*
X169265585Y-98120409D01*
X169275893Y-98086431D01*
X169292633Y-98055113D01*
X169315161Y-98027661D01*
X169342613Y-98005133D01*
X169373931Y-97988393D01*
X169407909Y-97978085D01*
X169449390Y-97974000D01*
X170050610Y-97974000D01*
X170092091Y-97978085D01*
X170092091Y-97978085D01*
G37*
G36*
X171667091Y-97978085D02*
X171701069Y-97988393D01*
X171732387Y-98005133D01*
X171759839Y-98027661D01*
X171782367Y-98055113D01*
X171799107Y-98086431D01*
X171809415Y-98120409D01*
X171813500Y-98161890D01*
X171813500Y-98838110D01*
X171809415Y-98879591D01*
X171799107Y-98913569D01*
X171782367Y-98944887D01*
X171759839Y-98972339D01*
X171732387Y-98994867D01*
X171701069Y-99011607D01*
X171667091Y-99021915D01*
X171625610Y-99026000D01*
X171024390Y-99026000D01*
X170982909Y-99021915D01*
X170948931Y-99011607D01*
X170917613Y-98994867D01*
X170890161Y-98972339D01*
X170867633Y-98944887D01*
X170850893Y-98913569D01*
X170840585Y-98879591D01*
X170836500Y-98838110D01*
X170836500Y-98161890D01*
X170840585Y-98120409D01*
X170850893Y-98086431D01*
X170867633Y-98055113D01*
X170890161Y-98027661D01*
X170917613Y-98005133D01*
X170948931Y-97988393D01*
X170982909Y-97978085D01*
X171024390Y-97974000D01*
X171625610Y-97974000D01*
X171667091Y-97978085D01*
X171667091Y-97978085D01*
G37*
G36*
X167506938Y-98131716D02*
X167527556Y-98137970D01*
X167546556Y-98148126D01*
X167563208Y-98161792D01*
X167576874Y-98178444D01*
X167587030Y-98197444D01*
X167593284Y-98218062D01*
X167596000Y-98245640D01*
X167596000Y-98754360D01*
X167593284Y-98781938D01*
X167587030Y-98802556D01*
X167576874Y-98821556D01*
X167563208Y-98838208D01*
X167546556Y-98851874D01*
X167527556Y-98862030D01*
X167506938Y-98868284D01*
X167479360Y-98871000D01*
X167020640Y-98871000D01*
X166993062Y-98868284D01*
X166972444Y-98862030D01*
X166953444Y-98851874D01*
X166936792Y-98838208D01*
X166923126Y-98821556D01*
X166912970Y-98802556D01*
X166906716Y-98781938D01*
X166904000Y-98754360D01*
X166904000Y-98245640D01*
X166906716Y-98218062D01*
X166912970Y-98197444D01*
X166923126Y-98178444D01*
X166936792Y-98161792D01*
X166953444Y-98148126D01*
X166972444Y-98137970D01*
X166993062Y-98131716D01*
X167020640Y-98129000D01*
X167479360Y-98129000D01*
X167506938Y-98131716D01*
X167506938Y-98131716D01*
G37*
G36*
X168476938Y-98131716D02*
X168497556Y-98137970D01*
X168516556Y-98148126D01*
X168533208Y-98161792D01*
X168546874Y-98178444D01*
X168557030Y-98197444D01*
X168563284Y-98218062D01*
X168566000Y-98245640D01*
X168566000Y-98754360D01*
X168563284Y-98781938D01*
X168557030Y-98802556D01*
X168546874Y-98821556D01*
X168533208Y-98838208D01*
X168516556Y-98851874D01*
X168497556Y-98862030D01*
X168476938Y-98868284D01*
X168449360Y-98871000D01*
X167990640Y-98871000D01*
X167963062Y-98868284D01*
X167942444Y-98862030D01*
X167923444Y-98851874D01*
X167906792Y-98838208D01*
X167893126Y-98821556D01*
X167882970Y-98802556D01*
X167876716Y-98781938D01*
X167874000Y-98754360D01*
X167874000Y-98245640D01*
X167876716Y-98218062D01*
X167882970Y-98197444D01*
X167893126Y-98178444D01*
X167906792Y-98161792D01*
X167923444Y-98148126D01*
X167942444Y-98137970D01*
X167963062Y-98131716D01*
X167990640Y-98129000D01*
X168449360Y-98129000D01*
X168476938Y-98131716D01*
X168476938Y-98131716D01*
G37*
G36*
X165781938Y-98171716D02*
X165802556Y-98177970D01*
X165821556Y-98188126D01*
X165838208Y-98201792D01*
X165851874Y-98218444D01*
X165862030Y-98237444D01*
X165868284Y-98258062D01*
X165871000Y-98285640D01*
X165871000Y-98744360D01*
X165868284Y-98771938D01*
X165862030Y-98792556D01*
X165851874Y-98811556D01*
X165838208Y-98828208D01*
X165821556Y-98841874D01*
X165802556Y-98852030D01*
X165781938Y-98858284D01*
X165754360Y-98861000D01*
X165245640Y-98861000D01*
X165218062Y-98858284D01*
X165197444Y-98852030D01*
X165178444Y-98841874D01*
X165161792Y-98828208D01*
X165148126Y-98811556D01*
X165137970Y-98792556D01*
X165131716Y-98771938D01*
X165129000Y-98744360D01*
X165129000Y-98285640D01*
X165131716Y-98258062D01*
X165137970Y-98237444D01*
X165148126Y-98218444D01*
X165161792Y-98201792D01*
X165178444Y-98188126D01*
X165197444Y-98177970D01*
X165218062Y-98171716D01*
X165245640Y-98169000D01*
X165754360Y-98169000D01*
X165781938Y-98171716D01*
X165781938Y-98171716D01*
G37*
G36*
X137781938Y-97641716D02*
X137802556Y-97647970D01*
X137821556Y-97658126D01*
X137838208Y-97671792D01*
X137851874Y-97688444D01*
X137862030Y-97707444D01*
X137868284Y-97728062D01*
X137871000Y-97755640D01*
X137871000Y-98214360D01*
X137868284Y-98241938D01*
X137862030Y-98262556D01*
X137851874Y-98281556D01*
X137838208Y-98298208D01*
X137821556Y-98311874D01*
X137802556Y-98322030D01*
X137781938Y-98328284D01*
X137754360Y-98331000D01*
X137245640Y-98331000D01*
X137218062Y-98328284D01*
X137197444Y-98322030D01*
X137178444Y-98311874D01*
X137161792Y-98298208D01*
X137148126Y-98281556D01*
X137137970Y-98262556D01*
X137131716Y-98241938D01*
X137129000Y-98214360D01*
X137129000Y-97755640D01*
X137131716Y-97728062D01*
X137137970Y-97707444D01*
X137148126Y-97688444D01*
X137161792Y-97671792D01*
X137178444Y-97658126D01*
X137197444Y-97647970D01*
X137218062Y-97641716D01*
X137245640Y-97639000D01*
X137754360Y-97639000D01*
X137781938Y-97641716D01*
X137781938Y-97641716D01*
G37*
G36*
X158118604Y-96078347D02*
X158155145Y-96089432D01*
X158188820Y-96107431D01*
X158218341Y-96131659D01*
X158242569Y-96161180D01*
X158260568Y-96194855D01*
X158271653Y-96231396D01*
X158276000Y-96275538D01*
X158276000Y-97724462D01*
X158271653Y-97768604D01*
X158260568Y-97805145D01*
X158242569Y-97838820D01*
X158218341Y-97868341D01*
X158188820Y-97892569D01*
X158155145Y-97910568D01*
X158118604Y-97921653D01*
X158074462Y-97926000D01*
X157125538Y-97926000D01*
X157081396Y-97921653D01*
X157044855Y-97910568D01*
X157011180Y-97892569D01*
X156981659Y-97868341D01*
X156957431Y-97838820D01*
X156939432Y-97805145D01*
X156928347Y-97768604D01*
X156924000Y-97724462D01*
X156924000Y-96275538D01*
X156928347Y-96231396D01*
X156939432Y-96194855D01*
X156957431Y-96161180D01*
X156981659Y-96131659D01*
X157011180Y-96107431D01*
X157044855Y-96089432D01*
X157081396Y-96078347D01*
X157125538Y-96074000D01*
X158074462Y-96074000D01*
X158118604Y-96078347D01*
X158118604Y-96078347D01*
G37*
G36*
X160918604Y-96078347D02*
X160955145Y-96089432D01*
X160988820Y-96107431D01*
X161018341Y-96131659D01*
X161042569Y-96161180D01*
X161060568Y-96194855D01*
X161071653Y-96231396D01*
X161076000Y-96275538D01*
X161076000Y-97724462D01*
X161071653Y-97768604D01*
X161060568Y-97805145D01*
X161042569Y-97838820D01*
X161018341Y-97868341D01*
X160988820Y-97892569D01*
X160955145Y-97910568D01*
X160918604Y-97921653D01*
X160874462Y-97926000D01*
X159925538Y-97926000D01*
X159881396Y-97921653D01*
X159844855Y-97910568D01*
X159811180Y-97892569D01*
X159781659Y-97868341D01*
X159757431Y-97838820D01*
X159739432Y-97805145D01*
X159728347Y-97768604D01*
X159724000Y-97724462D01*
X159724000Y-96275538D01*
X159728347Y-96231396D01*
X159739432Y-96194855D01*
X159757431Y-96161180D01*
X159781659Y-96131659D01*
X159811180Y-96107431D01*
X159844855Y-96089432D01*
X159881396Y-96078347D01*
X159925538Y-96074000D01*
X160874462Y-96074000D01*
X160918604Y-96078347D01*
X160918604Y-96078347D01*
G37*
G36*
X142618604Y-95578347D02*
X142655145Y-95589432D01*
X142688820Y-95607431D01*
X142718341Y-95631659D01*
X142742569Y-95661180D01*
X142760568Y-95694855D01*
X142771653Y-95731396D01*
X142776000Y-95775538D01*
X142776000Y-97224462D01*
X142771653Y-97268604D01*
X142760568Y-97305145D01*
X142742569Y-97338820D01*
X142718341Y-97368341D01*
X142688820Y-97392569D01*
X142655145Y-97410568D01*
X142618604Y-97421653D01*
X142574462Y-97426000D01*
X141625538Y-97426000D01*
X141581396Y-97421653D01*
X141544855Y-97410568D01*
X141511180Y-97392569D01*
X141481659Y-97368341D01*
X141457431Y-97338820D01*
X141439432Y-97305145D01*
X141428347Y-97268604D01*
X141424000Y-97224462D01*
X141424000Y-95775538D01*
X141428347Y-95731396D01*
X141439432Y-95694855D01*
X141457431Y-95661180D01*
X141481659Y-95631659D01*
X141511180Y-95607431D01*
X141544855Y-95589432D01*
X141581396Y-95578347D01*
X141625538Y-95574000D01*
X142574462Y-95574000D01*
X142618604Y-95578347D01*
X142618604Y-95578347D01*
G37*
G36*
X145418604Y-95578347D02*
X145455145Y-95589432D01*
X145488820Y-95607431D01*
X145518341Y-95631659D01*
X145542569Y-95661180D01*
X145560568Y-95694855D01*
X145571653Y-95731396D01*
X145576000Y-95775538D01*
X145576000Y-97224462D01*
X145571653Y-97268604D01*
X145560568Y-97305145D01*
X145542569Y-97338820D01*
X145518341Y-97368341D01*
X145488820Y-97392569D01*
X145455145Y-97410568D01*
X145418604Y-97421653D01*
X145374462Y-97426000D01*
X144425538Y-97426000D01*
X144381396Y-97421653D01*
X144344855Y-97410568D01*
X144311180Y-97392569D01*
X144281659Y-97368341D01*
X144257431Y-97338820D01*
X144239432Y-97305145D01*
X144228347Y-97268604D01*
X144224000Y-97224462D01*
X144224000Y-95775538D01*
X144228347Y-95731396D01*
X144239432Y-95694855D01*
X144257431Y-95661180D01*
X144281659Y-95631659D01*
X144311180Y-95607431D01*
X144344855Y-95589432D01*
X144381396Y-95578347D01*
X144425538Y-95574000D01*
X145374462Y-95574000D01*
X145418604Y-95578347D01*
X145418604Y-95578347D01*
G37*
G36*
X137781938Y-96671716D02*
X137802556Y-96677970D01*
X137821556Y-96688126D01*
X137838208Y-96701792D01*
X137851874Y-96718444D01*
X137862030Y-96737444D01*
X137868284Y-96758062D01*
X137871000Y-96785640D01*
X137871000Y-97244360D01*
X137868284Y-97271938D01*
X137862030Y-97292556D01*
X137851874Y-97311556D01*
X137838208Y-97328208D01*
X137821556Y-97341874D01*
X137802556Y-97352030D01*
X137781938Y-97358284D01*
X137754360Y-97361000D01*
X137245640Y-97361000D01*
X137218062Y-97358284D01*
X137197444Y-97352030D01*
X137178444Y-97341874D01*
X137161792Y-97328208D01*
X137148126Y-97311556D01*
X137137970Y-97292556D01*
X137131716Y-97271938D01*
X137129000Y-97244360D01*
X137129000Y-96785640D01*
X137131716Y-96758062D01*
X137137970Y-96737444D01*
X137148126Y-96718444D01*
X137161792Y-96701792D01*
X137178444Y-96688126D01*
X137197444Y-96677970D01*
X137218062Y-96671716D01*
X137245640Y-96669000D01*
X137754360Y-96669000D01*
X137781938Y-96671716D01*
X137781938Y-96671716D01*
G37*
G36*
X128634239Y-90311467D02*
X128948282Y-90373934D01*
X129539926Y-90619001D01*
X130068802Y-90972385D01*
X130072395Y-90974786D01*
X130525214Y-91427605D01*
X130525216Y-91427608D01*
X130880999Y-91960074D01*
X131126066Y-92551718D01*
X131251000Y-93179804D01*
X131251000Y-93820196D01*
X131126066Y-94448282D01*
X130880999Y-95039926D01*
X130666464Y-95361000D01*
X130525214Y-95572395D01*
X130072395Y-96025214D01*
X130072392Y-96025216D01*
X129539926Y-96380999D01*
X128948282Y-96626066D01*
X128732438Y-96669000D01*
X128320197Y-96751000D01*
X127679803Y-96751000D01*
X127267562Y-96669000D01*
X127051718Y-96626066D01*
X126460074Y-96380999D01*
X125927608Y-96025216D01*
X125927605Y-96025214D01*
X125474786Y-95572395D01*
X125333536Y-95361000D01*
X125119001Y-95039926D01*
X124873934Y-94448282D01*
X124749000Y-93820196D01*
X124749000Y-93179804D01*
X124873934Y-92551718D01*
X125119001Y-91960074D01*
X125474784Y-91427608D01*
X125474786Y-91427605D01*
X125927605Y-90974786D01*
X125931198Y-90972385D01*
X126460074Y-90619001D01*
X127051718Y-90373934D01*
X127365761Y-90311467D01*
X127679803Y-90249000D01*
X128320197Y-90249000D01*
X128634239Y-90311467D01*
X128634239Y-90311467D01*
G37*
G36*
X170634239Y-90311467D02*
X170948282Y-90373934D01*
X171539926Y-90619001D01*
X172068802Y-90972385D01*
X172072395Y-90974786D01*
X172525214Y-91427605D01*
X172525216Y-91427608D01*
X172880999Y-91960074D01*
X173126066Y-92551718D01*
X173251000Y-93179804D01*
X173251000Y-93820196D01*
X173126066Y-94448282D01*
X172880999Y-95039926D01*
X172666464Y-95361000D01*
X172525214Y-95572395D01*
X172072395Y-96025214D01*
X172072392Y-96025216D01*
X171539926Y-96380999D01*
X170948282Y-96626066D01*
X170732438Y-96669000D01*
X170320197Y-96751000D01*
X169679803Y-96751000D01*
X169267562Y-96669000D01*
X169051718Y-96626066D01*
X168460074Y-96380999D01*
X167927608Y-96025216D01*
X167927605Y-96025214D01*
X167474786Y-95572395D01*
X167333536Y-95361000D01*
X167119001Y-95039926D01*
X166873934Y-94448282D01*
X166749000Y-93820196D01*
X166749000Y-93179804D01*
X166873934Y-92551718D01*
X167119001Y-91960074D01*
X167474784Y-91427608D01*
X167474786Y-91427605D01*
X167927605Y-90974786D01*
X167931198Y-90972385D01*
X168460074Y-90619001D01*
X169051718Y-90373934D01*
X169365761Y-90311467D01*
X169679803Y-90249000D01*
X170320197Y-90249000D01*
X170634239Y-90311467D01*
X170634239Y-90311467D01*
G37*
G36*
X138781938Y-95641716D02*
X138802556Y-95647970D01*
X138821556Y-95658126D01*
X138838208Y-95671792D01*
X138851874Y-95688444D01*
X138862030Y-95707444D01*
X138868284Y-95728062D01*
X138871000Y-95755640D01*
X138871000Y-96214360D01*
X138868284Y-96241938D01*
X138862030Y-96262556D01*
X138851874Y-96281556D01*
X138838208Y-96298208D01*
X138821556Y-96311874D01*
X138802556Y-96322030D01*
X138781938Y-96328284D01*
X138754360Y-96331000D01*
X138245640Y-96331000D01*
X138218062Y-96328284D01*
X138197444Y-96322030D01*
X138178444Y-96311874D01*
X138161792Y-96298208D01*
X138148126Y-96281556D01*
X138137970Y-96262556D01*
X138131716Y-96241938D01*
X138129000Y-96214360D01*
X138129000Y-95755640D01*
X138131716Y-95728062D01*
X138137970Y-95707444D01*
X138148126Y-95688444D01*
X138161792Y-95671792D01*
X138178444Y-95658126D01*
X138197444Y-95647970D01*
X138218062Y-95641716D01*
X138245640Y-95639000D01*
X138754360Y-95639000D01*
X138781938Y-95641716D01*
X138781938Y-95641716D01*
G37*
G36*
X137781938Y-95641716D02*
X137802556Y-95647970D01*
X137821556Y-95658126D01*
X137838208Y-95671792D01*
X137851874Y-95688444D01*
X137862030Y-95707444D01*
X137868284Y-95728062D01*
X137871000Y-95755640D01*
X137871000Y-96214360D01*
X137868284Y-96241938D01*
X137862030Y-96262556D01*
X137851874Y-96281556D01*
X137838208Y-96298208D01*
X137821556Y-96311874D01*
X137802556Y-96322030D01*
X137781938Y-96328284D01*
X137754360Y-96331000D01*
X137245640Y-96331000D01*
X137218062Y-96328284D01*
X137197444Y-96322030D01*
X137178444Y-96311874D01*
X137161792Y-96298208D01*
X137148126Y-96281556D01*
X137137970Y-96262556D01*
X137131716Y-96241938D01*
X137129000Y-96214360D01*
X137129000Y-95755640D01*
X137131716Y-95728062D01*
X137137970Y-95707444D01*
X137148126Y-95688444D01*
X137161792Y-95671792D01*
X137178444Y-95658126D01*
X137197444Y-95647970D01*
X137218062Y-95641716D01*
X137245640Y-95639000D01*
X137754360Y-95639000D01*
X137781938Y-95641716D01*
X137781938Y-95641716D01*
G37*
G36*
X138781938Y-94671716D02*
X138802556Y-94677970D01*
X138821556Y-94688126D01*
X138838208Y-94701792D01*
X138851874Y-94718444D01*
X138862030Y-94737444D01*
X138868284Y-94758062D01*
X138871000Y-94785640D01*
X138871000Y-95244360D01*
X138868284Y-95271938D01*
X138862030Y-95292556D01*
X138851874Y-95311556D01*
X138838208Y-95328208D01*
X138821556Y-95341874D01*
X138802556Y-95352030D01*
X138781938Y-95358284D01*
X138754360Y-95361000D01*
X138245640Y-95361000D01*
X138218062Y-95358284D01*
X138197444Y-95352030D01*
X138178444Y-95341874D01*
X138161792Y-95328208D01*
X138148126Y-95311556D01*
X138137970Y-95292556D01*
X138131716Y-95271938D01*
X138129000Y-95244360D01*
X138129000Y-94785640D01*
X138131716Y-94758062D01*
X138137970Y-94737444D01*
X138148126Y-94718444D01*
X138161792Y-94701792D01*
X138178444Y-94688126D01*
X138197444Y-94677970D01*
X138218062Y-94671716D01*
X138245640Y-94669000D01*
X138754360Y-94669000D01*
X138781938Y-94671716D01*
X138781938Y-94671716D01*
G37*
G36*
X137781938Y-94671716D02*
X137802556Y-94677970D01*
X137821556Y-94688126D01*
X137838208Y-94701792D01*
X137851874Y-94718444D01*
X137862030Y-94737444D01*
X137868284Y-94758062D01*
X137871000Y-94785640D01*
X137871000Y-95244360D01*
X137868284Y-95271938D01*
X137862030Y-95292556D01*
X137851874Y-95311556D01*
X137838208Y-95328208D01*
X137821556Y-95341874D01*
X137802556Y-95352030D01*
X137781938Y-95358284D01*
X137754360Y-95361000D01*
X137245640Y-95361000D01*
X137218062Y-95358284D01*
X137197444Y-95352030D01*
X137178444Y-95341874D01*
X137161792Y-95328208D01*
X137148126Y-95311556D01*
X137137970Y-95292556D01*
X137131716Y-95271938D01*
X137129000Y-95244360D01*
X137129000Y-94785640D01*
X137131716Y-94758062D01*
X137137970Y-94737444D01*
X137148126Y-94718444D01*
X137161792Y-94701792D01*
X137178444Y-94688126D01*
X137197444Y-94677970D01*
X137218062Y-94671716D01*
X137245640Y-94669000D01*
X137754360Y-94669000D01*
X137781938Y-94671716D01*
X137781938Y-94671716D01*
G37*
M02*
